<svg xmlns="http://www.w3.org/2000/svg" xmlns:xlink="http://www.w3.org/1999/xlink" width="170.4" height="321.6" viewBox="4010 3043.5 177.5 335"><path fill="#FFF" d="M4010 3043.5h177.5v335H4010z"/><defs xmlns="http://www.w3.org/2000/svg" id="patterns"><pattern id="gridPattern" x="4000" y="3000" width="10" height="10" patternUnits="userSpaceOnUse"><path id="gridCell" fill="#FFF" stroke="none" fill-opacity=".8" d="M0 0h.5v.5H0z"/></pattern><pattern id="gridPattern2" x="4000.5" y="3000.5" width="10" height="10" patternUnits="userSpaceOnUse"><path id="gridCell2" d="M10 0v10h-20" fill="none" stroke="#FFF" stroke-width=".5" stroke-opacity=".6"/></pattern><marker id="arrowOnStart" orient="auto" refY="0" refX="0" markerUnits="strokeWidth" overflow="visible"><path d="M2 0l4-2v4z" stroke-width="6"/></marker><marker id="arrowOnEnd" orient="auto" refY="0" refX="0" markerUnits="strokeWidth" overflow="visible"><path d="M-2 0l-4-2v4z" stroke-width="6"/></marker><marker id="arrowOnStartChrome" orient="auto" refY="0" refX="0" markerUnits="strokeWidth" overflow="visible"><path d="M2 0l4-2v4z" stroke-width="3" stroke="#FFF"/></marker><marker id="arrowOnEndChrome" orient="auto" refY="0" refX="0" markerUnits="strokeWidth" overflow="visible"><path d="M-2 0l-4-2v4z" stroke-width="3" stroke="#FFF"/></marker><svg id="icon-lock" viewBox="0 0 20 20" height="20" width="20"><path stroke="#F0F" stroke-width="2" d="M5 7c0-8 10-8 10 0H1v12h18V7h-4" cursor="pointer" fill-opacity=".001" fill="#fff"/></svg><mask id="multiLayerMask" maskUnits="userSpaceOnUse" x="4020" y="3053.5" width="162.3" height="315"><path d="M4020 3368.5v-314.96h157.48v314.96z" fill="#fff"/><g stroke-width="0"><circle cx="4044.37" cy="3356.689" r="2.36"/><circle cx="4054.37" cy="3356.689" r="2.36"/><circle cx="4064.37" cy="3356.689" r="2.36"/><circle cx="4074.37" cy="3356.689" r="2.36"/><circle cx="4044.37" cy="3325.193" r="2.36"/><circle cx="4054.37" cy="3325.193" r="2.36"/><circle cx="4064.37" cy="3325.193" r="2.36"/><circle cx="4074.37" cy="3325.193" r="2.36"/><circle cx="4109.173" cy="3207.004" r="1.97"/><circle cx="4109.173" cy="3217.004" r="1.97"/><circle cx="4109.173" cy="3227.004" r="1.97"/><circle cx="4109.173" cy="3237.004" r="1.97"/><circle cx="4109.173" cy="3247.004" r="1.97"/><circle cx="4109.173" cy="3257.004" r="1.97"/><circle cx="4109.173" cy="3267.004" r="1.97"/><circle cx="4109.173" cy="3277.004" r="1.97"/><circle cx="4109.173" cy="3287.004" r="1.97"/><circle cx="4109.173" cy="3297.004" r="1.97"/><circle cx="4109.173" cy="3307.004" r="1.97"/><circle cx="4109.173" cy="3317.004" r="1.97"/><circle cx="4169.173" cy="3207.004" r="1.97"/><circle cx="4169.173" cy="3217.004" r="1.97"/><circle cx="4169.173" cy="3227.004" r="1.97"/><circle cx="4169.173" cy="3237.004" r="1.97"/><circle cx="4169.173" cy="3247.004" r="1.97"/><circle cx="4169.173" cy="3257.004" r="1.97"/><circle cx="4169.173" cy="3277.004" r="1.97"/><circle cx="4169.173" cy="3287.004" r="1.97"/><circle cx="4169.173" cy="3307.004" r="1.97"/><circle cx="4169.173" cy="3317.004" r="1.97"/><circle cx="4169.173" cy="3297.004" r="1.97"/><circle cx="4169.173" cy="3267.004" r="1.97"/><circle cx="4109.173" cy="3327.004" r="1.97"/><circle cx="4109.173" cy="3337.004" r="1.97"/><circle cx="4109.173" cy="3347.004" r="1.97"/><circle cx="4169.173" cy="3327.004" r="1.97"/><circle cx="4169.173" cy="3337.004" r="1.97"/><circle cx="4169.173" cy="3347.004" r="1.97"/><circle cx="4142.795" cy="3175.587" r="2.165"/><circle cx="4152.795" cy="3175.587" r="2.165"/><circle cx="4162.795" cy="3175.587" r="2.165"/><circle cx="4172.795" cy="3175.587" r="2.165"/><circle cx="4142.795" cy="3140.153" r="2.165"/><circle cx="4152.795" cy="3140.153" r="2.165"/><circle cx="4162.795" cy="3140.153" r="2.165"/><circle cx="4172.795" cy="3140.153" r="2.165"/><circle cx="4101.457" cy="3175.587" r="2.165"/><circle cx="4111.457" cy="3175.587" r="2.165"/><circle cx="4121.457" cy="3175.587" r="2.165"/><circle cx="4131.457" cy="3175.587" r="2.165"/><circle cx="4101.457" cy="3140.153" r="2.165"/><circle cx="4111.457" cy="3140.153" r="2.165"/><circle cx="4121.457" cy="3140.153" r="2.165"/><circle cx="4131.457" cy="3140.153" r="2.165"/><circle cx="4134.173" cy="3064.366" r="2.362"/><circle cx="4134.173" cy="3074.208" r="2.362"/><circle cx="4106.614" cy="3064.366" r="2.362"/><circle cx="4106.614" cy="3074.208" r="2.362"/><circle cx="4134.173" cy="3099.799" r="2.362"/><circle cx="4134.173" cy="3109.642" r="2.362"/><circle cx="4106.614" cy="3099.799" r="2.362"/><circle cx="4106.614" cy="3109.642" r="2.362"/><circle cx="4165.669" cy="3065.35" r="2.559"/><circle cx="4165.669" cy="3085.035" r="2.559"/><circle cx="4165.669" cy="3104.72" r="2.559"/><circle cx="4043.898" cy="3289.76" r="1.8"/><circle cx="4033.898" cy="3289.76" r="1.8"/><circle cx="4043.898" cy="3258.827" r="1.8"/><circle cx="4033.898" cy="3258.827" r="1.8"/><circle cx="4043.898" cy="3227.893" r="1.8"/><circle cx="4033.898" cy="3227.893" r="1.8"/><circle cx="4043.898" cy="3196.959" r="1.8"/><circle cx="4033.898" cy="3196.959" r="1.8"/><circle cx="4043.898" cy="3166.025" r="1.8"/><circle cx="4033.898" cy="3166.025" r="1.8"/><circle cx="4043.898" cy="3135.092" r="1.8"/><circle cx="4033.898" cy="3135.092" r="1.8"/><circle cx="4043.898" cy="3104.157" r="1.8"/><circle cx="4033.898" cy="3104.157" r="1.8"/><circle cx="4043.898" cy="3073.224" r="1.8"/><circle cx="4033.898" cy="3073.224" r="1.8"/><circle cx="4142.795" cy="3184.367" r="2.362"/><circle cx="4142.795" cy="3148.934" r="2.362"/><circle cx="4101.457" cy="3184.367" r="2.362"/><circle cx="4101.457" cy="3148.934" r="2.362"/><circle cx="4063.307" cy="3289.76" r="6.89"/><circle cx="4063.307" cy="3061.413" r="6.89"/></g></mask><mask id="topBoardSolderMask" maskUnits="userSpaceOnUse" x="4020" y="3053.5" width="162.3" height="315"><path d="M4020 3368.5v-314.96h157.48v314.96z" fill="#fff"/><g stroke-width="0"><path d="M4052.77 3263.98v-3.16h5.32v3.16zM4052.77 3271.46v-3.16h5.32v3.16zM4060.65 3267.72v-3.16h5.32v3.16zM4052.77 3214.48v-3.15h5.32v3.15zM4052.77 3221.96v-3.15h5.32v3.15zM4060.65 3218.22v-3.15h5.32v3.15zM4052.77 3164.99v-3.16h5.32v3.16zM4052.77 3172.47v-3.16h5.32v3.16zM4060.65 3168.73v-3.16h5.32v3.16zM4052.77 3115.49v-3.15h5.32v3.15zM4052.77 3122.97v-3.15h5.32v3.15zM4060.65 3119.23v-3.15h5.32v3.15zM4070.66 3260.76v-7.09h5.15v7.09zM4082.3 3260.76v-7.09h5.15v7.09zM4070.66 3273.62v-7.09h5.15v7.09zM4082.3 3273.62v-7.09h5.15v7.09zM4070.66 3209.32v-7.1h5.15v7.1zM4082.3 3209.32v-7.1h5.15v7.1zM4070.66 3222.18v-7.1h5.15v7.1zM4082.3 3222.18v-7.1h5.15v7.1zM4070.66 3157.88v-7.1h5.15v7.1zM4082.3 3157.88v-7.1h5.15v7.1zM4070.66 3170.74v-7.1h5.15v7.1zM4082.3 3170.74v-7.1h5.15v7.1zM4070.66 3106.43v-7.1h5.15v7.1zM4082.3 3106.43v-7.1h5.15v7.1zM4070.66 3119.29v-7.09h5.15v7.09zM4082.3 3119.29v-7.09h5.15v7.09zM4040.43 3360.63v-7.88h7.88v7.88z"/><ellipse cx="4054.371" cy="3356.689" rx="3.943" ry="3.943"/><ellipse cx="4064.371" cy="3356.689" rx="3.943" ry="3.943"/><ellipse cx="4074.371" cy="3356.689" rx="3.943" ry="3.943"/><path d="M4040.43 3329.14v-7.89h7.88v7.89z"/><ellipse cx="4054.371" cy="3325.193" rx="3.943" ry="3.943"/><ellipse cx="4064.371" cy="3325.193" rx="3.943" ry="3.943"/><ellipse cx="4074.371" cy="3325.193" rx="3.943" ry="3.943"/><path d="M4106.02 3211.34v-8.67h6.31v8.67z"/><ellipse cx="4109.173" cy="3217.004" rx="4.337" ry="4.337"/><ellipse cx="4109.173" cy="3227.004" rx="4.337" ry="4.337"/><ellipse cx="4109.173" cy="3237.004" rx="4.337" ry="4.337"/><ellipse cx="4109.173" cy="3247.004" rx="4.337" ry="4.337"/><ellipse cx="4109.173" cy="3257.004" rx="4.337" ry="4.337"/><ellipse cx="4109.173" cy="3267.004" rx="4.337" ry="4.337"/><ellipse cx="4109.173" cy="3277.004" rx="4.337" ry="4.337"/><ellipse cx="4109.173" cy="3287.004" rx="4.337" ry="4.337"/><ellipse cx="4109.173" cy="3297.004" rx="4.337" ry="4.337"/><ellipse cx="4109.173" cy="3307.004" rx="4.337" ry="4.337"/><ellipse cx="4109.173" cy="3317.004" rx="4.337" ry="4.337"/><ellipse cx="4169.173" cy="3207.004" rx="4.337" ry="4.337"/><ellipse cx="4169.173" cy="3217.004" rx="4.337" ry="4.337"/><ellipse cx="4169.173" cy="3227.004" rx="4.337" ry="4.337"/><ellipse cx="4169.173" cy="3237.004" rx="4.337" ry="4.337"/><ellipse cx="4169.173" cy="3247.004" rx="4.337" ry="4.337"/><ellipse cx="4169.173" cy="3257.004" rx="4.337" ry="4.337"/><ellipse cx="4169.173" cy="3277.004" rx="4.337" ry="4.337"/><ellipse cx="4169.173" cy="3287.004" rx="4.337" ry="4.337"/><ellipse cx="4169.173" cy="3307.004" rx="4.337" ry="4.337"/><ellipse cx="4169.173" cy="3317.004" rx="4.337" ry="4.337"/><ellipse cx="4169.173" cy="3297.004" rx="4.337" ry="4.337"/><ellipse cx="4169.173" cy="3267.004" rx="4.337" ry="4.337"/><ellipse cx="4109.173" cy="3327.004" rx="4.337" ry="4.337"/><ellipse cx="4109.173" cy="3337.004" rx="4.337" ry="4.337"/><ellipse cx="4109.173" cy="3347.004" rx="4.337" ry="4.337"/><ellipse cx="4169.173" cy="3327.004" rx="4.337" ry="4.337"/><ellipse cx="4169.173" cy="3337.004" rx="4.337" ry="4.337"/><ellipse cx="4169.173" cy="3347.004" rx="4.337" ry="4.337"/><ellipse cx="4142.795" cy="3175.587" rx="3.743" ry="3.743"/><ellipse cx="4152.795" cy="3175.587" rx="3.743" ry="3.743"/><ellipse cx="4162.795" cy="3175.587" rx="3.743" ry="3.743"/><path d="M4169.05 3179.33v-7.49h7.49v7.49z"/><ellipse cx="4142.795" cy="3140.154" rx="3.743" ry="3.743"/><ellipse cx="4152.795" cy="3140.154" rx="3.743" ry="3.743"/><ellipse cx="4162.795" cy="3140.154" rx="3.743" ry="3.743"/><path d="M4169.05 3143.9v-7.49h7.49v7.49z"/><ellipse cx="4101.457" cy="3175.587" rx="3.743" ry="3.743"/><ellipse cx="4111.457" cy="3175.587" rx="3.743" ry="3.743"/><ellipse cx="4121.457" cy="3175.587" rx="3.743" ry="3.743"/><path d="M4127.71 3179.33v-7.49h7.49v7.49z"/><ellipse cx="4101.457" cy="3140.154" rx="3.743" ry="3.743"/><ellipse cx="4111.457" cy="3140.154" rx="3.743" ry="3.743"/><ellipse cx="4121.457" cy="3140.154" rx="3.743" ry="3.743"/><path d="M4127.71 3143.9v-7.49h7.49v7.49zM4130.04 3068.5v-8.27h8.27v8.27z"/><ellipse cx="4134.173" cy="3074.209" rx="4.137" ry="4.137"/><path d="M4102.48 3068.5v-8.27h8.27v8.27z"/><ellipse cx="4106.614" cy="3074.209" rx="4.137" ry="4.137"/><path d="M4130.04 3103.94v-8.28h8.27v8.28z"/><ellipse cx="4134.173" cy="3109.642" rx="4.137" ry="4.137"/><path d="M4102.48 3103.94v-8.28h8.27v8.28z"/><ellipse cx="4106.614" cy="3109.642" rx="4.137" ry="4.137"/><ellipse cx="4165.669" cy="3065.35" rx="4.137" ry="4.137"/><ellipse cx="4165.669" cy="3085.035" rx="4.137" ry="4.137"/><ellipse cx="4165.669" cy="3104.72" rx="4.137" ry="4.137"/><ellipse cx="4043.898" cy="3289.76" rx="3.2" ry="3.2"/><ellipse cx="4033.898" cy="3289.76" rx="3.2" ry="3.2"/><ellipse cx="4043.898" cy="3258.827" rx="3.2" ry="3.2"/><ellipse cx="4033.898" cy="3258.827" rx="3.2" ry="3.2"/><ellipse cx="4043.898" cy="3227.893" rx="3.2" ry="3.2"/><ellipse cx="4033.898" cy="3227.893" rx="3.2" ry="3.2"/><ellipse cx="4043.898" cy="3196.959" rx="3.2" ry="3.2"/><ellipse cx="4033.898" cy="3196.959" rx="3.2" ry="3.2"/><ellipse cx="4043.898" cy="3166.025" rx="3.2" ry="3.2"/><ellipse cx="4033.898" cy="3166.025" rx="3.2" ry="3.2"/><ellipse cx="4043.898" cy="3135.092" rx="3.2" ry="3.2"/><ellipse cx="4033.898" cy="3135.092" rx="3.2" ry="3.2"/><ellipse cx="4043.898" cy="3104.158" rx="3.2" ry="3.2"/><ellipse cx="4033.898" cy="3104.158" rx="3.2" ry="3.2"/><ellipse cx="4043.898" cy="3073.224" rx="3.2" ry="3.2"/><ellipse cx="4033.898" cy="3073.224" rx="3.2" ry="3.2"/></g></mask><mask id="topSignalSolderMask" maskUnits="userSpaceOnUse" x="4020" y="3053.5" width="162.3" height="315"><path d="M4020 3368.5v-314.96h157.48v314.96z" fill="#fff"/><g stroke-width="0"><path d="M4052.77 3263.98v-3.16h5.32v3.16zM4052.77 3271.46v-3.16h5.32v3.16zM4060.65 3267.72v-3.16h5.32v3.16zM4052.77 3214.48v-3.15h5.32v3.15zM4052.77 3221.96v-3.15h5.32v3.15zM4060.65 3218.22v-3.15h5.32v3.15zM4052.77 3164.99v-3.16h5.32v3.16zM4052.77 3172.47v-3.16h5.32v3.16zM4060.65 3168.73v-3.16h5.32v3.16zM4052.77 3115.49v-3.15h5.32v3.15zM4052.77 3122.97v-3.15h5.32v3.15zM4060.65 3119.23v-3.15h5.32v3.15zM4070.66 3260.76v-7.09h5.15v7.09zM4082.3 3260.76v-7.09h5.15v7.09zM4070.66 3273.62v-7.09h5.15v7.09zM4082.3 3273.62v-7.09h5.15v7.09zM4070.66 3209.32v-7.1h5.15v7.1zM4082.3 3209.32v-7.1h5.15v7.1zM4070.66 3222.18v-7.1h5.15v7.1zM4082.3 3222.18v-7.1h5.15v7.1zM4070.66 3157.88v-7.1h5.15v7.1zM4082.3 3157.88v-7.1h5.15v7.1zM4070.66 3170.74v-7.1h5.15v7.1zM4082.3 3170.74v-7.1h5.15v7.1zM4070.66 3106.43v-7.1h5.15v7.1zM4082.3 3106.43v-7.1h5.15v7.1zM4070.66 3119.29v-7.09h5.15v7.09zM4082.3 3119.29v-7.09h5.15v7.09zM4040.43 3360.63v-7.88h7.88v7.88z"/><ellipse cx="4054.371" cy="3356.689" rx="3.943" ry="3.943"/><ellipse cx="4064.371" cy="3356.689" rx="3.943" ry="3.943"/><ellipse cx="4074.371" cy="3356.689" rx="3.943" ry="3.943"/><path d="M4040.43 3329.14v-7.89h7.88v7.89z"/><ellipse cx="4054.371" cy="3325.193" rx="3.943" ry="3.943"/><ellipse cx="4064.371" cy="3325.193" rx="3.943" ry="3.943"/><ellipse cx="4074.371" cy="3325.193" rx="3.943" ry="3.943"/><path d="M4106.02 3211.34v-8.67h6.31v8.67z"/><ellipse cx="4109.173" cy="3217.004" rx="4.337" ry="4.337"/><ellipse cx="4109.173" cy="3227.004" rx="4.337" ry="4.337"/><ellipse cx="4109.173" cy="3237.004" rx="4.337" ry="4.337"/><ellipse cx="4109.173" cy="3247.004" rx="4.337" ry="4.337"/><ellipse cx="4109.173" cy="3257.004" rx="4.337" ry="4.337"/><ellipse cx="4109.173" cy="3267.004" rx="4.337" ry="4.337"/><ellipse cx="4109.173" cy="3277.004" rx="4.337" ry="4.337"/><ellipse cx="4109.173" cy="3287.004" rx="4.337" ry="4.337"/><ellipse cx="4109.173" cy="3297.004" rx="4.337" ry="4.337"/><ellipse cx="4109.173" cy="3307.004" rx="4.337" ry="4.337"/><ellipse cx="4109.173" cy="3317.004" rx="4.337" ry="4.337"/><ellipse cx="4169.173" cy="3207.004" rx="4.337" ry="4.337"/><ellipse cx="4169.173" cy="3217.004" rx="4.337" ry="4.337"/><ellipse cx="4169.173" cy="3227.004" rx="4.337" ry="4.337"/><ellipse cx="4169.173" cy="3237.004" rx="4.337" ry="4.337"/><ellipse cx="4169.173" cy="3247.004" rx="4.337" ry="4.337"/><ellipse cx="4169.173" cy="3257.004" rx="4.337" ry="4.337"/><ellipse cx="4169.173" cy="3277.004" rx="4.337" ry="4.337"/><ellipse cx="4169.173" cy="3287.004" rx="4.337" ry="4.337"/><ellipse cx="4169.173" cy="3307.004" rx="4.337" ry="4.337"/><ellipse cx="4169.173" cy="3317.004" rx="4.337" ry="4.337"/><ellipse cx="4169.173" cy="3297.004" rx="4.337" ry="4.337"/><ellipse cx="4169.173" cy="3267.004" rx="4.337" ry="4.337"/><ellipse cx="4109.173" cy="3327.004" rx="4.337" ry="4.337"/><ellipse cx="4109.173" cy="3337.004" rx="4.337" ry="4.337"/><ellipse cx="4109.173" cy="3347.004" rx="4.337" ry="4.337"/><ellipse cx="4169.173" cy="3327.004" rx="4.337" ry="4.337"/><ellipse cx="4169.173" cy="3337.004" rx="4.337" ry="4.337"/><ellipse cx="4169.173" cy="3347.004" rx="4.337" ry="4.337"/><ellipse cx="4142.795" cy="3175.587" rx="3.743" ry="3.743"/><ellipse cx="4152.795" cy="3175.587" rx="3.743" ry="3.743"/><ellipse cx="4162.795" cy="3175.587" rx="3.743" ry="3.743"/><path d="M4169.05 3179.33v-7.49h7.49v7.49z"/><ellipse cx="4142.795" cy="3140.154" rx="3.743" ry="3.743"/><ellipse cx="4152.795" cy="3140.154" rx="3.743" ry="3.743"/><ellipse cx="4162.795" cy="3140.154" rx="3.743" ry="3.743"/><path d="M4169.05 3143.9v-7.49h7.49v7.49z"/><ellipse cx="4101.457" cy="3175.587" rx="3.743" ry="3.743"/><ellipse cx="4111.457" cy="3175.587" rx="3.743" ry="3.743"/><ellipse cx="4121.457" cy="3175.587" rx="3.743" ry="3.743"/><path d="M4127.71 3179.33v-7.49h7.49v7.49z"/><ellipse cx="4101.457" cy="3140.154" rx="3.743" ry="3.743"/><ellipse cx="4111.457" cy="3140.154" rx="3.743" ry="3.743"/><ellipse cx="4121.457" cy="3140.154" rx="3.743" ry="3.743"/><path d="M4127.71 3143.9v-7.49h7.49v7.49zM4130.04 3068.5v-8.27h8.27v8.27z"/><ellipse cx="4134.173" cy="3074.209" rx="4.137" ry="4.137"/><path d="M4102.48 3068.5v-8.27h8.27v8.27z"/><ellipse cx="4106.614" cy="3074.209" rx="4.137" ry="4.137"/><path d="M4130.04 3103.94v-8.28h8.27v8.28z"/><ellipse cx="4134.173" cy="3109.642" rx="4.137" ry="4.137"/><path d="M4102.48 3103.94v-8.28h8.27v8.28z"/><ellipse cx="4106.614" cy="3109.642" rx="4.137" ry="4.137"/><ellipse cx="4165.669" cy="3065.35" rx="4.137" ry="4.137"/><ellipse cx="4165.669" cy="3085.035" rx="4.137" ry="4.137"/><ellipse cx="4165.669" cy="3104.72" rx="4.137" ry="4.137"/><ellipse cx="4043.898" cy="3289.76" rx="3.2" ry="3.2"/><ellipse cx="4033.898" cy="3289.76" rx="3.2" ry="3.2"/><ellipse cx="4043.898" cy="3258.827" rx="3.2" ry="3.2"/><ellipse cx="4033.898" cy="3258.827" rx="3.2" ry="3.2"/><ellipse cx="4043.898" cy="3227.893" rx="3.2" ry="3.2"/><ellipse cx="4033.898" cy="3227.893" rx="3.2" ry="3.2"/><ellipse cx="4043.898" cy="3196.959" rx="3.2" ry="3.2"/><ellipse cx="4033.898" cy="3196.959" rx="3.2" ry="3.2"/><ellipse cx="4043.898" cy="3166.025" rx="3.2" ry="3.2"/><ellipse cx="4033.898" cy="3166.025" rx="3.2" ry="3.2"/><ellipse cx="4043.898" cy="3135.092" rx="3.2" ry="3.2"/><ellipse cx="4033.898" cy="3135.092" rx="3.2" ry="3.2"/><ellipse cx="4043.898" cy="3104.158" rx="3.2" ry="3.2"/><ellipse cx="4033.898" cy="3104.158" rx="3.2" ry="3.2"/><ellipse cx="4043.898" cy="3073.224" rx="3.2" ry="3.2"/><ellipse cx="4033.898" cy="3073.224" rx="3.2" ry="3.2"/></g></mask><mask id="bottomBoardSolderMask" maskUnits="userSpaceOnUse" x="4020" y="3053.5" width="162.3" height="315"><path d="M4020 3368.5v-314.96h157.48v314.96z" fill="#fff"/><g stroke-width="0"><path d="M4052.77 3246.71v-3.16h5.32v3.16zM4052.77 3239.23v-3.16h5.32v3.16zM4060.65 3242.97v-3.16h5.32v3.16zM4052.77 3197.22v-3.16h5.32v3.16zM4052.77 3189.74v-3.16h5.32v3.16zM4060.65 3193.48v-3.16h5.32v3.16zM4052.77 3147.72v-3.15h5.32v3.15zM4052.77 3140.24v-3.15h5.32v3.15zM4060.65 3143.98v-3.15h5.32v3.15zM4052.77 3098.23v-3.16h5.32v3.16zM4052.77 3090.75v-3.16h5.32v3.16zM4060.65 3094.49v-3.16h5.32v3.16zM4070.66 3247.9v-7.1h5.15v7.1zM4082.3 3247.9v-7.1h5.15v7.1zM4070.66 3235.04v-7.1h5.15v7.1zM4082.3 3235.04v-7.1h5.15v7.1zM4070.66 3196.46v-7.1h5.15v7.1zM4082.3 3196.46v-7.1h5.15v7.1zM4070.66 3183.6v-7.1h5.15v7.1zM4082.3 3183.6v-7.1h5.15v7.1zM4070.66 3145.01v-7.09h5.15v7.09zM4082.3 3145.01v-7.09h5.15v7.09zM4070.66 3132.15v-7.09h5.15v7.09zM4082.3 3132.15v-7.09h5.15v7.09zM4070.66 3093.57v-7.1h5.15v7.1zM4082.3 3093.57v-7.1h5.15v7.1zM4070.66 3080.71v-7.1h5.15v7.1zM4082.3 3080.71v-7.1h5.15v7.1zM4040.43 3360.63v-7.88h7.88v7.88z"/><ellipse cx="4054.371" cy="3356.689" rx="3.943" ry="3.943"/><ellipse cx="4064.371" cy="3356.689" rx="3.943" ry="3.943"/><ellipse cx="4074.371" cy="3356.689" rx="3.943" ry="3.943"/><path d="M4040.43 3329.14v-7.89h7.88v7.89z"/><ellipse cx="4054.371" cy="3325.193" rx="3.943" ry="3.943"/><ellipse cx="4064.371" cy="3325.193" rx="3.943" ry="3.943"/><ellipse cx="4074.371" cy="3325.193" rx="3.943" ry="3.943"/><path d="M4106.02 3211.34v-8.67h6.31v8.67z"/><ellipse cx="4109.173" cy="3217.004" rx="4.337" ry="4.337"/><ellipse cx="4109.173" cy="3227.004" rx="4.337" ry="4.337"/><ellipse cx="4109.173" cy="3237.004" rx="4.337" ry="4.337"/><ellipse cx="4109.173" cy="3247.004" rx="4.337" ry="4.337"/><ellipse cx="4109.173" cy="3257.004" rx="4.337" ry="4.337"/><ellipse cx="4109.173" cy="3267.004" rx="4.337" ry="4.337"/><ellipse cx="4109.173" cy="3277.004" rx="4.337" ry="4.337"/><ellipse cx="4109.173" cy="3287.004" rx="4.337" ry="4.337"/><ellipse cx="4109.173" cy="3297.004" rx="4.337" ry="4.337"/><ellipse cx="4109.173" cy="3307.004" rx="4.337" ry="4.337"/><ellipse cx="4109.173" cy="3317.004" rx="4.337" ry="4.337"/><ellipse cx="4169.173" cy="3207.004" rx="4.337" ry="4.337"/><ellipse cx="4169.173" cy="3217.004" rx="4.337" ry="4.337"/><ellipse cx="4169.173" cy="3227.004" rx="4.337" ry="4.337"/><ellipse cx="4169.173" cy="3237.004" rx="4.337" ry="4.337"/><ellipse cx="4169.173" cy="3247.004" rx="4.337" ry="4.337"/><ellipse cx="4169.173" cy="3257.004" rx="4.337" ry="4.337"/><ellipse cx="4169.173" cy="3277.004" rx="4.337" ry="4.337"/><ellipse cx="4169.173" cy="3287.004" rx="4.337" ry="4.337"/><ellipse cx="4169.173" cy="3307.004" rx="4.337" ry="4.337"/><ellipse cx="4169.173" cy="3317.004" rx="4.337" ry="4.337"/><ellipse cx="4169.173" cy="3297.004" rx="4.337" ry="4.337"/><ellipse cx="4169.173" cy="3267.004" rx="4.337" ry="4.337"/><ellipse cx="4109.173" cy="3327.004" rx="4.337" ry="4.337"/><ellipse cx="4109.173" cy="3337.004" rx="4.337" ry="4.337"/><ellipse cx="4109.173" cy="3347.004" rx="4.337" ry="4.337"/><ellipse cx="4169.173" cy="3327.004" rx="4.337" ry="4.337"/><ellipse cx="4169.173" cy="3337.004" rx="4.337" ry="4.337"/><ellipse cx="4169.173" cy="3347.004" rx="4.337" ry="4.337"/><ellipse cx="4142.795" cy="3175.587" rx="3.743" ry="3.743"/><ellipse cx="4152.795" cy="3175.587" rx="3.743" ry="3.743"/><ellipse cx="4162.795" cy="3175.587" rx="3.743" ry="3.743"/><path d="M4169.05 3179.33v-7.49h7.49v7.49z"/><ellipse cx="4142.795" cy="3140.154" rx="3.743" ry="3.743"/><ellipse cx="4152.795" cy="3140.154" rx="3.743" ry="3.743"/><ellipse cx="4162.795" cy="3140.154" rx="3.743" ry="3.743"/><path d="M4169.05 3143.9v-7.49h7.49v7.49z"/><ellipse cx="4101.457" cy="3175.587" rx="3.743" ry="3.743"/><ellipse cx="4111.457" cy="3175.587" rx="3.743" ry="3.743"/><ellipse cx="4121.457" cy="3175.587" rx="3.743" ry="3.743"/><path d="M4127.71 3179.33v-7.49h7.49v7.49z"/><ellipse cx="4101.457" cy="3140.154" rx="3.743" ry="3.743"/><ellipse cx="4111.457" cy="3140.154" rx="3.743" ry="3.743"/><ellipse cx="4121.457" cy="3140.154" rx="3.743" ry="3.743"/><path d="M4127.71 3143.9v-7.49h7.49v7.49zM4130.04 3068.5v-8.27h8.27v8.27z"/><ellipse cx="4134.173" cy="3074.209" rx="4.137" ry="4.137"/><path d="M4102.48 3068.5v-8.27h8.27v8.27z"/><ellipse cx="4106.614" cy="3074.209" rx="4.137" ry="4.137"/><path d="M4130.04 3103.94v-8.28h8.27v8.28z"/><ellipse cx="4134.173" cy="3109.642" rx="4.137" ry="4.137"/><path d="M4102.48 3103.94v-8.28h8.27v8.28z"/><ellipse cx="4106.614" cy="3109.642" rx="4.137" ry="4.137"/><ellipse cx="4165.669" cy="3065.35" rx="4.137" ry="4.137"/><ellipse cx="4165.669" cy="3085.035" rx="4.137" ry="4.137"/><ellipse cx="4165.669" cy="3104.72" rx="4.137" ry="4.137"/><ellipse cx="4043.898" cy="3289.76" rx="3.2" ry="3.2"/><ellipse cx="4033.898" cy="3289.76" rx="3.2" ry="3.2"/><ellipse cx="4043.898" cy="3258.827" rx="3.2" ry="3.2"/><ellipse cx="4033.898" cy="3258.827" rx="3.2" ry="3.2"/><ellipse cx="4043.898" cy="3227.893" rx="3.2" ry="3.2"/><ellipse cx="4033.898" cy="3227.893" rx="3.2" ry="3.2"/><ellipse cx="4043.898" cy="3196.959" rx="3.2" ry="3.2"/><ellipse cx="4033.898" cy="3196.959" rx="3.2" ry="3.2"/><ellipse cx="4043.898" cy="3166.025" rx="3.2" ry="3.2"/><ellipse cx="4033.898" cy="3166.025" rx="3.2" ry="3.2"/><ellipse cx="4043.898" cy="3135.092" rx="3.2" ry="3.2"/><ellipse cx="4033.898" cy="3135.092" rx="3.2" ry="3.2"/><ellipse cx="4043.898" cy="3104.158" rx="3.2" ry="3.2"/><ellipse cx="4033.898" cy="3104.158" rx="3.2" ry="3.2"/><ellipse cx="4043.898" cy="3073.224" rx="3.2" ry="3.2"/><ellipse cx="4033.898" cy="3073.224" rx="3.2" ry="3.2"/></g></mask><mask id="bottomSignalSolderMask" maskUnits="userSpaceOnUse" x="4020" y="3053.5" width="162.3" height="315"><path d="M4020 3368.5v-314.96h157.48v314.96z" fill="#fff"/><g stroke-width="0"><path d="M4052.77 3246.71v-3.16h5.32v3.16zM4052.77 3239.23v-3.16h5.32v3.16zM4060.65 3242.97v-3.16h5.32v3.16zM4052.77 3197.22v-3.16h5.32v3.16zM4052.77 3189.74v-3.16h5.32v3.16zM4060.65 3193.48v-3.16h5.32v3.16zM4052.77 3147.72v-3.15h5.32v3.15zM4052.77 3140.24v-3.15h5.32v3.15zM4060.65 3143.98v-3.15h5.32v3.15zM4052.77 3098.23v-3.16h5.32v3.16zM4052.77 3090.75v-3.16h5.32v3.16zM4060.65 3094.49v-3.16h5.32v3.16zM4070.66 3247.9v-7.1h5.15v7.1zM4082.3 3247.9v-7.1h5.15v7.1zM4070.66 3235.04v-7.1h5.15v7.1zM4082.3 3235.04v-7.1h5.15v7.1zM4070.66 3196.46v-7.1h5.15v7.1zM4082.3 3196.46v-7.1h5.15v7.1zM4070.66 3183.6v-7.1h5.15v7.1zM4082.3 3183.6v-7.1h5.15v7.1zM4070.66 3145.01v-7.09h5.15v7.09zM4082.3 3145.01v-7.09h5.15v7.09zM4070.66 3132.15v-7.09h5.15v7.09zM4082.3 3132.15v-7.09h5.15v7.09zM4070.66 3093.57v-7.1h5.15v7.1zM4082.3 3093.57v-7.1h5.15v7.1zM4070.66 3080.71v-7.1h5.15v7.1zM4082.3 3080.71v-7.1h5.15v7.1zM4040.43 3360.63v-7.88h7.88v7.88z"/><ellipse cx="4054.371" cy="3356.689" rx="3.943" ry="3.943"/><ellipse cx="4064.371" cy="3356.689" rx="3.943" ry="3.943"/><ellipse cx="4074.371" cy="3356.689" rx="3.943" ry="3.943"/><path d="M4040.43 3329.14v-7.89h7.88v7.89z"/><ellipse cx="4054.371" cy="3325.193" rx="3.943" ry="3.943"/><ellipse cx="4064.371" cy="3325.193" rx="3.943" ry="3.943"/><ellipse cx="4074.371" cy="3325.193" rx="3.943" ry="3.943"/><path d="M4106.02 3211.34v-8.67h6.31v8.67z"/><ellipse cx="4109.173" cy="3217.004" rx="4.337" ry="4.337"/><ellipse cx="4109.173" cy="3227.004" rx="4.337" ry="4.337"/><ellipse cx="4109.173" cy="3237.004" rx="4.337" ry="4.337"/><ellipse cx="4109.173" cy="3247.004" rx="4.337" ry="4.337"/><ellipse cx="4109.173" cy="3257.004" rx="4.337" ry="4.337"/><ellipse cx="4109.173" cy="3267.004" rx="4.337" ry="4.337"/><ellipse cx="4109.173" cy="3277.004" rx="4.337" ry="4.337"/><ellipse cx="4109.173" cy="3287.004" rx="4.337" ry="4.337"/><ellipse cx="4109.173" cy="3297.004" rx="4.337" ry="4.337"/><ellipse cx="4109.173" cy="3307.004" rx="4.337" ry="4.337"/><ellipse cx="4109.173" cy="3317.004" rx="4.337" ry="4.337"/><ellipse cx="4169.173" cy="3207.004" rx="4.337" ry="4.337"/><ellipse cx="4169.173" cy="3217.004" rx="4.337" ry="4.337"/><ellipse cx="4169.173" cy="3227.004" rx="4.337" ry="4.337"/><ellipse cx="4169.173" cy="3237.004" rx="4.337" ry="4.337"/><ellipse cx="4169.173" cy="3247.004" rx="4.337" ry="4.337"/><ellipse cx="4169.173" cy="3257.004" rx="4.337" ry="4.337"/><ellipse cx="4169.173" cy="3277.004" rx="4.337" ry="4.337"/><ellipse cx="4169.173" cy="3287.004" rx="4.337" ry="4.337"/><ellipse cx="4169.173" cy="3307.004" rx="4.337" ry="4.337"/><ellipse cx="4169.173" cy="3317.004" rx="4.337" ry="4.337"/><ellipse cx="4169.173" cy="3297.004" rx="4.337" ry="4.337"/><ellipse cx="4169.173" cy="3267.004" rx="4.337" ry="4.337"/><ellipse cx="4109.173" cy="3327.004" rx="4.337" ry="4.337"/><ellipse cx="4109.173" cy="3337.004" rx="4.337" ry="4.337"/><ellipse cx="4109.173" cy="3347.004" rx="4.337" ry="4.337"/><ellipse cx="4169.173" cy="3327.004" rx="4.337" ry="4.337"/><ellipse cx="4169.173" cy="3337.004" rx="4.337" ry="4.337"/><ellipse cx="4169.173" cy="3347.004" rx="4.337" ry="4.337"/><ellipse cx="4142.795" cy="3175.587" rx="3.743" ry="3.743"/><ellipse cx="4152.795" cy="3175.587" rx="3.743" ry="3.743"/><ellipse cx="4162.795" cy="3175.587" rx="3.743" ry="3.743"/><path d="M4169.05 3179.33v-7.49h7.49v7.49z"/><ellipse cx="4142.795" cy="3140.154" rx="3.743" ry="3.743"/><ellipse cx="4152.795" cy="3140.154" rx="3.743" ry="3.743"/><ellipse cx="4162.795" cy="3140.154" rx="3.743" ry="3.743"/><path d="M4169.05 3143.9v-7.49h7.49v7.49z"/><ellipse cx="4101.457" cy="3175.587" rx="3.743" ry="3.743"/><ellipse cx="4111.457" cy="3175.587" rx="3.743" ry="3.743"/><ellipse cx="4121.457" cy="3175.587" rx="3.743" ry="3.743"/><path d="M4127.71 3179.33v-7.49h7.49v7.49z"/><ellipse cx="4101.457" cy="3140.154" rx="3.743" ry="3.743"/><ellipse cx="4111.457" cy="3140.154" rx="3.743" ry="3.743"/><ellipse cx="4121.457" cy="3140.154" rx="3.743" ry="3.743"/><path d="M4127.71 3143.9v-7.49h7.49v7.49zM4130.04 3068.5v-8.27h8.27v8.27z"/><ellipse cx="4134.173" cy="3074.209" rx="4.137" ry="4.137"/><path d="M4102.48 3068.5v-8.27h8.27v8.27z"/><ellipse cx="4106.614" cy="3074.209" rx="4.137" ry="4.137"/><path d="M4130.04 3103.94v-8.28h8.27v8.28z"/><ellipse cx="4134.173" cy="3109.642" rx="4.137" ry="4.137"/><path d="M4102.48 3103.94v-8.28h8.27v8.28z"/><ellipse cx="4106.614" cy="3109.642" rx="4.137" ry="4.137"/><ellipse cx="4165.669" cy="3065.35" rx="4.137" ry="4.137"/><ellipse cx="4165.669" cy="3085.035" rx="4.137" ry="4.137"/><ellipse cx="4165.669" cy="3104.72" rx="4.137" ry="4.137"/><ellipse cx="4043.898" cy="3289.76" rx="3.2" ry="3.2"/><ellipse cx="4033.898" cy="3289.76" rx="3.2" ry="3.2"/><ellipse cx="4043.898" cy="3258.827" rx="3.2" ry="3.2"/><ellipse cx="4033.898" cy="3258.827" rx="3.2" ry="3.2"/><ellipse cx="4043.898" cy="3227.893" rx="3.2" ry="3.2"/><ellipse cx="4033.898" cy="3227.893" rx="3.2" ry="3.2"/><ellipse cx="4043.898" cy="3196.959" rx="3.2" ry="3.2"/><ellipse cx="4033.898" cy="3196.959" rx="3.2" ry="3.2"/><ellipse cx="4043.898" cy="3166.025" rx="3.2" ry="3.2"/><ellipse cx="4033.898" cy="3166.025" rx="3.2" ry="3.2"/><ellipse cx="4043.898" cy="3135.092" rx="3.2" ry="3.2"/><ellipse cx="4033.898" cy="3135.092" rx="3.2" ry="3.2"/><ellipse cx="4043.898" cy="3104.158" rx="3.2" ry="3.2"/><ellipse cx="4033.898" cy="3104.158" rx="3.2" ry="3.2"/><ellipse cx="4043.898" cy="3073.224" rx="3.2" ry="3.2"/><ellipse cx="4033.898" cy="3073.224" rx="3.2" ry="3.2"/></g></mask></defs><g xmlns="http://www.w3.org/2000/svg" id="g1" mask="url(#multiLayerMask)" class="photoview" transform="matrix(-1 0 0 1 8197.48 0)"><g id="layer_other" class="shapeBox"><path d="M4020 3368.5v-314.96h157.48v314.96z" stroke="none" id="boardOutlineReal" fill="#80785F"/><path d="M4020 3368.5v-314.96h157.48v314.96z" stroke="none" id="bottomBoardSolderReal" mask="url(#bottomBoardSolderMask)" fill="#940300"/><g id="bottomSignalReal" fill="#D2D2D2" stroke="#D2D2D2"><path stroke-width="7.874" stroke-linecap="round" fill="none" id="gge12491_2" d="M4121.46 3140.15v18.35h31.04l10.3-10.3v-8.05"/><path stroke-width="1.378" stroke-linecap="round" fill="none" id="gge12495_2" d="M4101.46 3140.15l4.35 4.35v26.74l-4.35 4.35"/><path stroke-width="7.874" stroke-linecap="round" fill="none" id="gge12542_2" d="M4131.46 3140.15v-6.61l4.54-4.54h33.5l3.3 3.3v7.85"/><path stroke-width="1.378" stroke-linecap="round" fill="none" id="gge12614_2" d="M4106.61 3099.8l5.81 5.81v7.83l-16.17 16.17v55.48l8.83 8.83h58.86l10.88 10.89v96.55l-5.65 5.64"/><path stroke-width="1.378" stroke-linecap="round" fill="none" id="gge12573_2" d="M4073.23 3244.35h-13.07l-.78.78"/><path stroke-width="1.378" stroke-linecap="round" fill="none" id="gge12572_2" d="M4055.73 3245.13h3.65"/><path stroke-width="1.378" stroke-linecap="round" fill="none" id="gge12571_2" d="M4055.73 3245.13h-.3"/><path stroke-width="1.378" stroke-linecap="round" fill="none" id="gge12570_2" d="M4059.38 3245.13v35.88l-20.26 20.26v40.17l15.25 15.25"/><path stroke-width="1.378" stroke-linecap="round" fill="none" id="gge12569_2" d="M4055.43 3245.13h3.95"/><path stroke-width="1.378" stroke-linecap="round" fill="none" id="gge12568_2" d="M4073.23 3192.91h-3.86"/><path stroke-width="1.378" stroke-linecap="round" fill="none" id="gge12567_2" d="M4069.37 3192.91l-2.73 2.73h-11.21"/><path stroke-width="1.378" stroke-linecap="round" fill="none" id="gge12566_2" d="M4074.37 3356.69l-5.03 5.03h-29.62l-10.33-10.34v-129.7l22.1-22.1v-3.94"/><path stroke-width="1.378" stroke-linecap="round" fill="none" id="gge12565_2" d="M4055.43 3195.64h-3.94"/><path stroke-width="1.378" stroke-linecap="round" fill="none" id="gge12564_2" d="M4073.23 3141.47h-3.86"/><path stroke-width="1.378" stroke-linecap="round" fill="none" id="gge12563_2" d="M4054.37 3325.19l22.84-22.83v-144.67l-11.55-11.55"/><path stroke-width="1.378" stroke-linecap="round" fill="none" id="gge12562_2" d="M4069.37 3141.47v.96l-3.71 3.71"/><path stroke-width="1.378" stroke-linecap="round" fill="none" id="gge12561_2" d="M4065.66 3146.14h-10.23"/><path stroke-width="1.378" stroke-linecap="round" fill="none" id="gge12560_2" d="M4073.23 3090.02l-6.62 6.63"/><path stroke-width="1.378" stroke-linecap="round" fill="none" id="gge12559_2" d="M4066.61 3096.65h-11.18"/><path stroke-width="1.378" stroke-linecap="round" fill="none" id="gge12558_2" d="M4066.61 3096.65l13.32 13.32v209.67l-5.56 5.55"/><path stroke-width="1.378" stroke-linecap="round" fill="none" id="gge12557_2" d="M4055.43 3138.66h-3.94"/><path stroke-width="1.378" stroke-linecap="round" fill="none" id="gge12556_2" d="M4033.9 3196.96l8.8-8.8h12.73"/><path stroke-width="1.378" stroke-linecap="round" fill="none" id="gge12555_2" d="M4033.9 3227.89l9.76 9.76h11.77"/><path stroke-width="1.378" stroke-linecap="round" fill="none" id="gge12550_2" d="M4033.9 3073.22l4.95-4.95h19.41l1.52 1.52h35.99l5.42-5.42"/><path stroke-width="1.378" stroke-linecap="round" fill="none" id="gge12549_2" d="M4165.67 3065.35h-25.09l-.98-.98"/><path stroke-width="1.378" stroke-linecap="round" fill="none" id="gge12548_2" d="M4134.17 3064.37h5.43"/><path stroke-width="1.378" stroke-linecap="round" fill="none" id="gge12547_2" d="M4103.9 3064.37h-2.71"/><path stroke-width="1.378" stroke-linecap="round" fill="none" id="gge12546_2" d="M4103.9 3064.37h2.71"/><path stroke-width="1.378" stroke-linecap="round" fill="none" id="gge12545_2" d="M4106.61 3064.37h27.56"/><path stroke-width="1.378" stroke-linecap="round" fill="none" id="gge12533_2" d="M4033.9 3073.22l14.99 14.99v.96"/><path stroke-width="1.378" stroke-linecap="round" fill="none" id="gge12532_2" d="M4055.43 3089.17h-6.54"/><path stroke-width="1.378" stroke-linecap="round" fill="none" id="gge12531_2" d="M4048.89 3089.17l-14.99 14.99"/><path stroke-width="1.378" stroke-linecap="round" fill="none" id="gge12527_2" d="M4039.05 3140.24l-5.15 5.15v20.64"/><path stroke-width="1.378" stroke-linecap="round" fill="none" id="gge12526_2" d="M4033.9 3135.09l5.15 5.15"/><path stroke-width="1.378" stroke-linecap="round" fill="none" id="gge12525_2" d="M4039.05 3140.24h10.86l1.58-1.58"/><path stroke-width="3.15" stroke-linecap="round" fill="none" id="gge12520_2" d="M4084.88 3077.16v9.62"/><path stroke-width="3.15" stroke-linecap="round" fill="none" id="gge12519_2" d="M4084.88 3086.78v3.24"/><path stroke-width="3.15" stroke-linecap="round" fill="none" id="gge12518_2" d="M4084.88 3086.78v2.92l19.94 19.94"/><path stroke-width="3.15" stroke-linecap="round" fill="none" id="gge12517_2" d="M4104.82 3109.64h1.79"/><path stroke-width="3.15" stroke-linecap="round" fill="none" id="gge12516_2" d="M4084.88 3128.61v12.86"/><path stroke-width="3.15" stroke-linecap="round" fill="none" id="gge12515_2" d="M4089.62 3128.61v-3.77l15.2-15.2"/><path stroke-width="3.15" stroke-linecap="round" fill="none" id="gge12514_2" d="M4084.88 3128.61h4.74"/><path stroke-width="3.15" stroke-linecap="round" fill="none" id="gge12513_2" d="M4084.88 3231.49v12.86"/><path stroke-width="3.15" stroke-linecap="round" fill="none" id="gge12512_2" d="M4084.88 3141.47v5.71"/><path stroke-width="3.15" stroke-linecap="round" fill="none" id="gge12511_2" d="M4084.88 3192.91v-12.86"/><path stroke-width="3.15" stroke-linecap="round" fill="none" id="gge12510_2" d="M4084.88 3180.05v-32.87"/><path stroke-width="3.15" stroke-linecap="round" fill="none" id="gge12501_2" d="M4165.67 3104.72l-4.92 4.92h-26.58"/><path stroke-width="3.15" stroke-linecap="round" fill="none" id="gge12498_2" d="M4084.88 3200.38h47.67l36.62 36.62"/><path stroke-width="3.15" stroke-linecap="round" fill="none" id="gge12497_2" d="M4084.88 3192.91v7.47"/><path stroke-width="3.15" stroke-linecap="round" fill="none" id="gge12496_2" d="M4084.88 3200.38v31.11"/><path stroke-width="7.874" stroke-linecap="round" fill="none" id="gge12493_2" d="M4165.67 3085.04h-31.34l-12.87 12.87v42.24"/><path stroke-width="1.378" stroke-linecap="round" fill="none" id="gge12489_2" d="M4043.9 3258.83v-8.85l8.59-8.59h10.82"/><path stroke-width="1.378" stroke-linecap="round" fill="none" id="gge12488_2" d="M4069.37 3231.49v7.78l-2.12 2.12"/><path stroke-width="1.378" stroke-linecap="round" fill="none" id="gge12487_2" d="M4073.23 3231.49h-3.86"/><path stroke-width="1.378" stroke-linecap="round" fill="none" id="gge12486_2" d="M4063.31 3241.39h3.94"/><path stroke-width="1.378" stroke-linecap="round" fill="none" id="gge12485_2" d="M4043.9 3196.96l5.06-5.06h14.35"/><path stroke-width="1.378" stroke-linecap="round" fill="none" id="gge12484_2" d="M4069.37 3180.05v9.73l-2.12 2.12"/><path stroke-width="1.378" stroke-linecap="round" fill="none" id="gge12483_2" d="M4073.23 3180.05h-3.86"/><path stroke-width="1.378" stroke-linecap="round" fill="none" id="gge12482_2" d="M4063.31 3191.9h3.94"/><path stroke-width="1.378" stroke-linecap="round" fill="none" id="gge12481_2" d="M4073.23 3128.61h-3.86"/><path stroke-width="1.378" stroke-linecap="round" fill="none" id="gge12480_2" d="M4069.37 3128.61l-8.97 8.96"/><path stroke-width="1.378" stroke-linecap="round" fill="none" id="gge12479_2" d="M4043.9 3135.09h14.02l2.48 2.48"/><path stroke-width="1.378" stroke-linecap="round" fill="none" id="gge12478_2" d="M4060.4 3137.57l2.91 2.91v1.92"/><path stroke-width="1.378" stroke-linecap="round" fill="none" id="gge12477_2" d="M4073.23 3077.16h-3.31"/><path stroke-width="1.378" stroke-linecap="round" fill="none" id="gge12476_2" d="M4063.31 3092.91h3.94"/><path stroke-width="1.378" stroke-linecap="round" fill="none" id="gge12475_2" d="M4069.92 3077.16h-.55l-2.12 2.12"/><path stroke-width="1.378" stroke-linecap="round" fill="none" id="gge12474_2" d="M4067.25 3079.28v13.63"/><path stroke-width="1.378" stroke-linecap="round" fill="none" id="gge12473_2" d="M4067.25 3079.28l-6.05-6.06h-17.3"/><path stroke-width="0" d="M4057.894 3243.753h-4.921v2.756h4.92z" id="gge10919_2"/><path stroke-width="0" d="M4057.894 3236.273h-4.921v2.756h4.92z" id="gge10924_2"/><path stroke-width="0" d="M4065.768 3240.013h-4.921v2.756h4.92z" id="gge10929_2"/><path stroke-width="0" d="M4057.894 3194.26h-4.921v2.755h4.92z" id="gge10989_2"/><path stroke-width="0" d="M4057.894 3186.78h-4.921v2.755h4.92z" id="gge10994_2"/><path stroke-width="0" d="M4065.768 3190.52h-4.921v2.755h4.92z" id="gge10999_2"/><path stroke-width="0" d="M4057.894 3144.765h-4.921v2.756h4.92z" id="gge11059_2"/><path stroke-width="0" d="M4057.894 3137.285h-4.921v2.756h4.92z" id="gge11064_2"/><path stroke-width="0" d="M4065.768 3141.025h-4.921v2.756h4.92z" id="gge11069_2"/><path stroke-width="0" d="M4057.894 3095.271h-4.921v2.756h4.92z" id="gge11129_2"/><path stroke-width="0" d="M4057.894 3087.791h-4.921v2.756h4.92z" id="gge11134_2"/><path stroke-width="0" d="M4065.768 3091.532h-4.921v2.755h4.92z" id="gge11139_2"/><path stroke-width="0" d="M4075.61 3247.701v-6.696h-4.754v6.696z" id="gge11212_2"/><path stroke-width="0" d="M4082.5 3247.701v-6.696h4.754v6.696z" id="gge11217_2"/><path stroke-width="0" d="M4075.61 3234.84v-6.697h-4.754v6.697z" id="gge11238_2"/><path stroke-width="0" d="M4082.5 3234.84v-6.697h4.754v6.697z" id="gge11243_2"/><path stroke-width="0" d="M4075.61 3196.258v-6.697h-4.754v6.697z" id="gge11316_2"/><path stroke-width="0" d="M4082.5 3196.258v-6.697h4.754v6.697z" id="gge11321_2"/><path stroke-width="0" d="M4075.61 3183.397v-6.697h-4.754v6.697z" id="gge11342_2"/><path stroke-width="0" d="M4082.5 3183.397v-6.697h4.754v6.697z" id="gge11347_2"/><path stroke-width="0" d="M4075.61 3144.814v-6.697h-4.754v6.697z" id="gge11420_2"/><path stroke-width="0" d="M4082.5 3144.814v-6.697h4.754v6.697z" id="gge11425_2"/><path stroke-width="0" d="M4075.61 3131.953v-6.697h-4.754v6.697z" id="gge11446_2"/><path stroke-width="0" d="M4082.5 3131.953v-6.697h4.754v6.697z" id="gge11451_2"/><path stroke-width="0" d="M4075.61 3093.37v-6.696h-4.754v6.697z" id="gge11524_2"/><path stroke-width="0" d="M4082.5 3093.37v-6.696h4.754v6.697z" id="gge11529_2"/><path stroke-width="0" d="M4075.61 3080.51v-6.697h-4.754v6.697z" id="gge11550_2"/><path stroke-width="0" d="M4082.5 3080.51v-6.697h4.754v6.697z" id="gge11555_2"/><path d="M4101.238 3172.05l3.755 3.762.365-3.145-.974-.976z" stroke-width="0" id="gge12628_2"/><path d="M4163.068 3087.99l-.006-5.905-2.757-.982.008 7.874z" stroke-width="0" id="gge12631_2"/><path d="M4129.735 3136.61h3.445l-1.034-2.067h-1.378z" stroke-width="0" id="gge12637_2"/><path d="M4171.077 3136.61h3.445l-1.033-2.067h-1.378z" stroke-width="0" id="gge12638_2"/><path stroke-width="0" d="M4040.827 3353.146h7.086v7.086h-7.086z" id="gge2232_11"/><ellipse cx="4054.371" cy="3356.689" rx="3.543" ry="3.543" stroke-width="0" id="gge2237_11"/><ellipse cx="4064.371" cy="3356.689" rx="3.543" ry="3.543" stroke-width="0" id="gge2242_11"/><ellipse cx="4074.371" cy="3356.689" rx="3.543" ry="3.543" stroke-width="0" id="gge2247_11"/><path stroke-width="0" d="M4040.827 3321.65h7.086v7.086h-7.086z" id="gge2269_11"/><ellipse cx="4054.371" cy="3325.193" rx="3.543" ry="3.543" stroke-width="0" id="gge2274_11"/><ellipse cx="4064.371" cy="3325.193" rx="3.543" ry="3.543" stroke-width="0" id="gge2279_11"/><ellipse cx="4074.371" cy="3325.193" rx="3.543" ry="3.543" stroke-width="0" id="gge2284_11"/><path stroke-width="0" d="M4106.418 3210.94v-7.873h5.51v7.874z" id="gge6804_11"/><ellipse cx="4109.173" cy="3217.004" rx="3.937" ry="3.937" stroke-width="0" id="gge6809_11"/><ellipse cx="4109.173" cy="3227.004" rx="3.937" ry="3.937" stroke-width="0" id="gge6814_11"/><ellipse cx="4109.173" cy="3237.004" rx="3.937" ry="3.937" stroke-width="0" id="gge6819_11"/><ellipse cx="4109.173" cy="3247.004" rx="3.937" ry="3.937" stroke-width="0" id="gge6824_11"/><ellipse cx="4109.173" cy="3257.004" rx="3.937" ry="3.937" stroke-width="0" id="gge6829_11"/><ellipse cx="4109.173" cy="3267.004" rx="3.937" ry="3.937" stroke-width="0" id="gge6834_11"/><ellipse cx="4109.173" cy="3277.004" rx="3.937" ry="3.937" stroke-width="0" id="gge6839_11"/><ellipse cx="4109.173" cy="3287.004" rx="3.937" ry="3.937" stroke-width="0" id="gge6844_11"/><ellipse cx="4109.173" cy="3297.004" rx="3.937" ry="3.937" stroke-width="0" id="gge6849_11"/><ellipse cx="4109.173" cy="3307.004" rx="3.937" ry="3.937" stroke-width="0" id="gge6854_11"/><ellipse cx="4109.173" cy="3317.004" rx="3.937" ry="3.937" stroke-width="0" id="gge6859_11"/><ellipse cx="4169.173" cy="3207.004" rx="3.937" ry="3.937" stroke-width="0" id="gge6864_11"/><ellipse cx="4169.173" cy="3217.004" rx="3.937" ry="3.937" stroke-width="0" id="gge6869_11"/><ellipse cx="4169.173" cy="3227.004" rx="3.937" ry="3.937" stroke-width="0" id="gge6874_11"/><ellipse cx="4169.173" cy="3237.004" rx="3.937" ry="3.937" stroke-width="0" id="gge6879_11"/><ellipse cx="4169.173" cy="3247.004" rx="3.937" ry="3.937" stroke-width="0" id="gge6884_11"/><ellipse cx="4169.173" cy="3257.004" rx="3.937" ry="3.937" stroke-width="0" id="gge6889_11"/><ellipse cx="4169.173" cy="3277.004" rx="3.937" ry="3.937" stroke-width="0" id="gge6894_11"/><ellipse cx="4169.173" cy="3287.004" rx="3.937" ry="3.937" stroke-width="0" id="gge6899_11"/><ellipse cx="4169.173" cy="3307.004" rx="3.937" ry="3.937" stroke-width="0" id="gge6904_11"/><ellipse cx="4169.173" cy="3317.004" rx="3.937" ry="3.937" stroke-width="0" id="gge6909_11"/><ellipse cx="4169.173" cy="3297.004" rx="3.937" ry="3.937" stroke-width="0" id="gge6914_11"/><ellipse cx="4169.173" cy="3267.004" rx="3.937" ry="3.937" stroke-width="0" id="gge6919_11"/><ellipse cx="4109.173" cy="3327.004" rx="3.937" ry="3.937" stroke-width="0" id="gge6924_11"/><ellipse cx="4109.173" cy="3337.004" rx="3.937" ry="3.937" stroke-width="0" id="gge6929_11"/><ellipse cx="4109.173" cy="3347.004" rx="3.937" ry="3.937" stroke-width="0" id="gge6934_11"/><ellipse cx="4169.173" cy="3327.004" rx="3.937" ry="3.937" stroke-width="0" id="gge6939_11"/><ellipse cx="4169.173" cy="3337.004" rx="3.937" ry="3.937" stroke-width="0" id="gge6944_11"/><ellipse cx="4169.173" cy="3347.004" rx="3.937" ry="3.937" stroke-width="0" id="gge6949_11"/><ellipse cx="4142.795" cy="3175.587" rx="3.543" ry="3.543" stroke-width="0" id="gge7046_11"/><ellipse cx="4152.795" cy="3175.587" rx="3.543" ry="3.543" stroke-width="0" id="gge7051_11"/><ellipse cx="4162.795" cy="3175.587" rx="3.543" ry="3.543" stroke-width="0" id="gge7056_11"/><path stroke-width="0" d="M4169.252 3172.043h7.087v7.087h-7.087z" id="gge7061_11"/><ellipse cx="4142.795" cy="3140.154" rx="3.543" ry="3.543" stroke-width="0" id="gge7094_11"/><ellipse cx="4152.795" cy="3140.154" rx="3.543" ry="3.543" stroke-width="0" id="gge7099_11"/><ellipse cx="4162.795" cy="3140.154" rx="3.543" ry="3.543" stroke-width="0" id="gge7104_11"/><path stroke-width="0" d="M4169.252 3136.61h7.087v7.087h-7.087z" id="gge7109_11"/><ellipse cx="4101.457" cy="3175.587" rx="3.543" ry="3.543" stroke-width="0" id="gge7142_11"/><ellipse cx="4111.457" cy="3175.587" rx="3.543" ry="3.543" stroke-width="0" id="gge7147_11"/><ellipse cx="4121.457" cy="3175.587" rx="3.543" ry="3.543" stroke-width="0" id="gge7152_11"/><path stroke-width="0" d="M4127.913 3172.043H4135v7.087h-7.087z" id="gge7157_11"/><ellipse cx="4101.457" cy="3140.154" rx="3.543" ry="3.543" stroke-width="0" id="gge7190_11"/><ellipse cx="4111.457" cy="3140.154" rx="3.543" ry="3.543" stroke-width="0" id="gge7195_11"/><ellipse cx="4121.457" cy="3140.154" rx="3.543" ry="3.543" stroke-width="0" id="gge7200_11"/><path stroke-width="0" d="M4127.913 3136.61H4135v7.087h-7.087z" id="gge7205_11"/><path stroke-width="0" d="M4138.11 3060.429v7.874h-7.874v-7.874z" id="gge7254_11"/><ellipse cx="4134.173" cy="3074.209" rx="3.937" ry="3.937" stroke-width="0" id="gge7259_11"/><path stroke-width="0" d="M4110.551 3060.429v7.874h-7.874v-7.874z" id="gge7281_11"/><ellipse cx="4106.614" cy="3074.209" rx="3.937" ry="3.937" stroke-width="0" id="gge7286_11"/><path stroke-width="0" d="M4138.11 3095.862v7.874h-7.874v-7.874z" id="gge7308_11"/><ellipse cx="4134.173" cy="3109.642" rx="3.937" ry="3.937" stroke-width="0" id="gge7313_11"/><path stroke-width="0" d="M4110.551 3095.862v7.874h-7.874v-7.874z" id="gge7335_11"/><ellipse cx="4106.614" cy="3109.642" rx="3.937" ry="3.937" stroke-width="0" id="gge7340_11"/><ellipse cx="4165.669" cy="3065.35" rx="3.937" ry="3.937" stroke-width="0" id="gge9957_11"/><ellipse cx="4165.669" cy="3085.035" rx="3.937" ry="3.937" stroke-width="0" id="gge9962_11"/><ellipse cx="4165.669" cy="3104.72" rx="3.937" ry="3.937" stroke-width="0" id="gge9967_11"/><ellipse cx="4043.898" cy="3289.76" rx="3" ry="3" stroke-width="0" id="gge2302_11"/><ellipse cx="4033.898" cy="3289.76" rx="3" ry="3" stroke-width="0" id="gge10_11"/><ellipse cx="4043.898" cy="3258.827" rx="3" ry="3" stroke-width="0" id="gge2322_11"/><ellipse cx="4033.898" cy="3258.827" rx="3" ry="3" stroke-width="0" id="gge2327_11"/><ellipse cx="4043.898" cy="3227.893" rx="3" ry="3" stroke-width="0" id="gge2343_11"/><ellipse cx="4033.898" cy="3227.893" rx="3" ry="3" stroke-width="0" id="gge2348_11"/><ellipse cx="4043.898" cy="3196.959" rx="3" ry="3" stroke-width="0" id="gge2364_11"/><ellipse cx="4033.898" cy="3196.959" rx="3" ry="3" stroke-width="0" id="gge2369_11"/><ellipse cx="4043.898" cy="3166.025" rx="3" ry="3" stroke-width="0" id="gge5285_11"/><ellipse cx="4033.898" cy="3166.025" rx="3" ry="3" stroke-width="0" id="gge5290_11"/><ellipse cx="4043.898" cy="3135.092" rx="3" ry="3" stroke-width="0" id="gge5312_11"/><ellipse cx="4033.898" cy="3135.092" rx="3" ry="3" stroke-width="0" id="gge5317_11"/><ellipse cx="4043.898" cy="3104.158" rx="3" ry="3" stroke-width="0" id="gge5339_11"/><ellipse cx="4033.898" cy="3104.158" rx="3" ry="3" stroke-width="0" id="gge5344_11"/><ellipse cx="4043.898" cy="3073.224" rx="3" ry="3" stroke-width="0" id="gge5366_11"/><ellipse cx="4033.898" cy="3073.224" rx="3" ry="3" stroke-width="0" id="gge5371_11"/></g><g id="bottomSignalSolderReal" mask="url(#bottomSignalSolderMask)" fill="#D90305" stroke="#D90305"><path stroke-width="7.874" stroke-linecap="round" fill="none" id="gge12491_2" d="M4121.46 3140.15v18.35h31.04l10.3-10.3v-8.05"/><path stroke-width="1.378" stroke-linecap="round" fill="none" id="gge12495_2" d="M4101.46 3140.15l4.35 4.35v26.74l-4.35 4.35"/><path stroke-width="7.874" stroke-linecap="round" fill="none" id="gge12542_2" d="M4131.46 3140.15v-6.61l4.54-4.54h33.5l3.3 3.3v7.85"/><path stroke-width="1.378" stroke-linecap="round" fill="none" id="gge12614_2" d="M4106.61 3099.8l5.81 5.81v7.83l-16.17 16.17v55.48l8.83 8.83h58.86l10.88 10.89v96.55l-5.65 5.64"/><path stroke-width="1.378" stroke-linecap="round" fill="none" id="gge12573_2" d="M4073.23 3244.35h-13.07l-.78.78"/><path stroke-width="1.378" stroke-linecap="round" fill="none" id="gge12572_2" d="M4055.73 3245.13h3.65"/><path stroke-width="1.378" stroke-linecap="round" fill="none" id="gge12571_2" d="M4055.73 3245.13h-.3"/><path stroke-width="1.378" stroke-linecap="round" fill="none" id="gge12570_2" d="M4059.38 3245.13v35.88l-20.26 20.26v40.17l15.25 15.25"/><path stroke-width="1.378" stroke-linecap="round" fill="none" id="gge12569_2" d="M4055.43 3245.13h3.95"/><path stroke-width="1.378" stroke-linecap="round" fill="none" id="gge12568_2" d="M4073.23 3192.91h-3.86"/><path stroke-width="1.378" stroke-linecap="round" fill="none" id="gge12567_2" d="M4069.37 3192.91l-2.73 2.73h-11.21"/><path stroke-width="1.378" stroke-linecap="round" fill="none" id="gge12566_2" d="M4074.37 3356.69l-5.03 5.03h-29.62l-10.33-10.34v-129.7l22.1-22.1v-3.94"/><path stroke-width="1.378" stroke-linecap="round" fill="none" id="gge12565_2" d="M4055.43 3195.64h-3.94"/><path stroke-width="1.378" stroke-linecap="round" fill="none" id="gge12564_2" d="M4073.23 3141.47h-3.86"/><path stroke-width="1.378" stroke-linecap="round" fill="none" id="gge12563_2" d="M4054.37 3325.19l22.84-22.83v-144.67l-11.55-11.55"/><path stroke-width="1.378" stroke-linecap="round" fill="none" id="gge12562_2" d="M4069.37 3141.47v.96l-3.71 3.71"/><path stroke-width="1.378" stroke-linecap="round" fill="none" id="gge12561_2" d="M4065.66 3146.14h-10.23"/><path stroke-width="1.378" stroke-linecap="round" fill="none" id="gge12560_2" d="M4073.23 3090.02l-6.62 6.63"/><path stroke-width="1.378" stroke-linecap="round" fill="none" id="gge12559_2" d="M4066.61 3096.65h-11.18"/><path stroke-width="1.378" stroke-linecap="round" fill="none" id="gge12558_2" d="M4066.61 3096.65l13.32 13.32v209.67l-5.56 5.55"/><path stroke-width="1.378" stroke-linecap="round" fill="none" id="gge12557_2" d="M4055.43 3138.66h-3.94"/><path stroke-width="1.378" stroke-linecap="round" fill="none" id="gge12556_2" d="M4033.9 3196.96l8.8-8.8h12.73"/><path stroke-width="1.378" stroke-linecap="round" fill="none" id="gge12555_2" d="M4033.9 3227.89l9.76 9.76h11.77"/><path stroke-width="1.378" stroke-linecap="round" fill="none" id="gge12550_2" d="M4033.9 3073.22l4.95-4.95h19.41l1.52 1.52h35.99l5.42-5.42"/><path stroke-width="1.378" stroke-linecap="round" fill="none" id="gge12549_2" d="M4165.67 3065.35h-25.09l-.98-.98"/><path stroke-width="1.378" stroke-linecap="round" fill="none" id="gge12548_2" d="M4134.17 3064.37h5.43"/><path stroke-width="1.378" stroke-linecap="round" fill="none" id="gge12547_2" d="M4103.9 3064.37h-2.71"/><path stroke-width="1.378" stroke-linecap="round" fill="none" id="gge12546_2" d="M4103.9 3064.37h2.71"/><path stroke-width="1.378" stroke-linecap="round" fill="none" id="gge12545_2" d="M4106.61 3064.37h27.56"/><path stroke-width="1.378" stroke-linecap="round" fill="none" id="gge12533_2" d="M4033.9 3073.22l14.99 14.99v.96"/><path stroke-width="1.378" stroke-linecap="round" fill="none" id="gge12532_2" d="M4055.43 3089.17h-6.54"/><path stroke-width="1.378" stroke-linecap="round" fill="none" id="gge12531_2" d="M4048.89 3089.17l-14.99 14.99"/><path stroke-width="1.378" stroke-linecap="round" fill="none" id="gge12527_2" d="M4039.05 3140.24l-5.15 5.15v20.64"/><path stroke-width="1.378" stroke-linecap="round" fill="none" id="gge12526_2" d="M4033.9 3135.09l5.15 5.15"/><path stroke-width="1.378" stroke-linecap="round" fill="none" id="gge12525_2" d="M4039.05 3140.24h10.86l1.58-1.58"/><path stroke-width="3.15" stroke-linecap="round" fill="none" id="gge12520_2" d="M4084.88 3077.16v9.62"/><path stroke-width="3.15" stroke-linecap="round" fill="none" id="gge12519_2" d="M4084.88 3086.78v3.24"/><path stroke-width="3.15" stroke-linecap="round" fill="none" id="gge12518_2" d="M4084.88 3086.78v2.92l19.94 19.94"/><path stroke-width="3.15" stroke-linecap="round" fill="none" id="gge12517_2" d="M4104.82 3109.64h1.79"/><path stroke-width="3.15" stroke-linecap="round" fill="none" id="gge12516_2" d="M4084.88 3128.61v12.86"/><path stroke-width="3.15" stroke-linecap="round" fill="none" id="gge12515_2" d="M4089.62 3128.61v-3.77l15.2-15.2"/><path stroke-width="3.15" stroke-linecap="round" fill="none" id="gge12514_2" d="M4084.88 3128.61h4.74"/><path stroke-width="3.15" stroke-linecap="round" fill="none" id="gge12513_2" d="M4084.88 3231.49v12.86"/><path stroke-width="3.15" stroke-linecap="round" fill="none" id="gge12512_2" d="M4084.88 3141.47v5.71"/><path stroke-width="3.15" stroke-linecap="round" fill="none" id="gge12511_2" d="M4084.88 3192.91v-12.86"/><path stroke-width="3.15" stroke-linecap="round" fill="none" id="gge12510_2" d="M4084.88 3180.05v-32.87"/><path stroke-width="3.15" stroke-linecap="round" fill="none" id="gge12501_2" d="M4165.67 3104.72l-4.92 4.92h-26.58"/><path stroke-width="3.15" stroke-linecap="round" fill="none" id="gge12498_2" d="M4084.88 3200.38h47.67l36.62 36.62"/><path stroke-width="3.15" stroke-linecap="round" fill="none" id="gge12497_2" d="M4084.88 3192.91v7.47"/><path stroke-width="3.15" stroke-linecap="round" fill="none" id="gge12496_2" d="M4084.88 3200.38v31.11"/><path stroke-width="7.874" stroke-linecap="round" fill="none" id="gge12493_2" d="M4165.67 3085.04h-31.34l-12.87 12.87v42.24"/><path stroke-width="1.378" stroke-linecap="round" fill="none" id="gge12489_2" d="M4043.9 3258.83v-8.85l8.59-8.59h10.82"/><path stroke-width="1.378" stroke-linecap="round" fill="none" id="gge12488_2" d="M4069.37 3231.49v7.78l-2.12 2.12"/><path stroke-width="1.378" stroke-linecap="round" fill="none" id="gge12487_2" d="M4073.23 3231.49h-3.86"/><path stroke-width="1.378" stroke-linecap="round" fill="none" id="gge12486_2" d="M4063.31 3241.39h3.94"/><path stroke-width="1.378" stroke-linecap="round" fill="none" id="gge12485_2" d="M4043.9 3196.96l5.06-5.06h14.35"/><path stroke-width="1.378" stroke-linecap="round" fill="none" id="gge12484_2" d="M4069.37 3180.05v9.73l-2.12 2.12"/><path stroke-width="1.378" stroke-linecap="round" fill="none" id="gge12483_2" d="M4073.23 3180.05h-3.86"/><path stroke-width="1.378" stroke-linecap="round" fill="none" id="gge12482_2" d="M4063.31 3191.9h3.94"/><path stroke-width="1.378" stroke-linecap="round" fill="none" id="gge12481_2" d="M4073.23 3128.61h-3.86"/><path stroke-width="1.378" stroke-linecap="round" fill="none" id="gge12480_2" d="M4069.37 3128.61l-8.97 8.96"/><path stroke-width="1.378" stroke-linecap="round" fill="none" id="gge12479_2" d="M4043.9 3135.09h14.02l2.48 2.48"/><path stroke-width="1.378" stroke-linecap="round" fill="none" id="gge12478_2" d="M4060.4 3137.57l2.91 2.91v1.92"/><path stroke-width="1.378" stroke-linecap="round" fill="none" id="gge12477_2" d="M4073.23 3077.16h-3.31"/><path stroke-width="1.378" stroke-linecap="round" fill="none" id="gge12476_2" d="M4063.31 3092.91h3.94"/><path stroke-width="1.378" stroke-linecap="round" fill="none" id="gge12475_2" d="M4069.92 3077.16h-.55l-2.12 2.12"/><path stroke-width="1.378" stroke-linecap="round" fill="none" id="gge12474_2" d="M4067.25 3079.28v13.63"/><path stroke-width="1.378" stroke-linecap="round" fill="none" id="gge12473_2" d="M4067.25 3079.28l-6.05-6.06h-17.3"/><path stroke-width="0" d="M4057.894 3243.753h-4.921v2.756h4.92z" id="gge10919_2"/><path stroke-width="0" d="M4057.894 3236.273h-4.921v2.756h4.92z" id="gge10924_2"/><path stroke-width="0" d="M4065.768 3240.013h-4.921v2.756h4.92z" id="gge10929_2"/><path stroke-width="0" d="M4057.894 3194.26h-4.921v2.755h4.92z" id="gge10989_2"/><path stroke-width="0" d="M4057.894 3186.78h-4.921v2.755h4.92z" id="gge10994_2"/><path stroke-width="0" d="M4065.768 3190.52h-4.921v2.755h4.92z" id="gge10999_2"/><path stroke-width="0" d="M4057.894 3144.765h-4.921v2.756h4.92z" id="gge11059_2"/><path stroke-width="0" d="M4057.894 3137.285h-4.921v2.756h4.92z" id="gge11064_2"/><path stroke-width="0" d="M4065.768 3141.025h-4.921v2.756h4.92z" id="gge11069_2"/><path stroke-width="0" d="M4057.894 3095.271h-4.921v2.756h4.92z" id="gge11129_2"/><path stroke-width="0" d="M4057.894 3087.791h-4.921v2.756h4.92z" id="gge11134_2"/><path stroke-width="0" d="M4065.768 3091.532h-4.921v2.755h4.92z" id="gge11139_2"/><path stroke-width="0" d="M4075.61 3247.701v-6.696h-4.754v6.696z" id="gge11212_2"/><path stroke-width="0" d="M4082.5 3247.701v-6.696h4.754v6.696z" id="gge11217_2"/><path stroke-width="0" d="M4075.61 3234.84v-6.697h-4.754v6.697z" id="gge11238_2"/><path stroke-width="0" d="M4082.5 3234.84v-6.697h4.754v6.697z" id="gge11243_2"/><path stroke-width="0" d="M4075.61 3196.258v-6.697h-4.754v6.697z" id="gge11316_2"/><path stroke-width="0" d="M4082.5 3196.258v-6.697h4.754v6.697z" id="gge11321_2"/><path stroke-width="0" d="M4075.61 3183.397v-6.697h-4.754v6.697z" id="gge11342_2"/><path stroke-width="0" d="M4082.5 3183.397v-6.697h4.754v6.697z" id="gge11347_2"/><path stroke-width="0" d="M4075.61 3144.814v-6.697h-4.754v6.697z" id="gge11420_2"/><path stroke-width="0" d="M4082.5 3144.814v-6.697h4.754v6.697z" id="gge11425_2"/><path stroke-width="0" d="M4075.61 3131.953v-6.697h-4.754v6.697z" id="gge11446_2"/><path stroke-width="0" d="M4082.5 3131.953v-6.697h4.754v6.697z" id="gge11451_2"/><path stroke-width="0" d="M4075.61 3093.37v-6.696h-4.754v6.697z" id="gge11524_2"/><path stroke-width="0" d="M4082.5 3093.37v-6.696h4.754v6.697z" id="gge11529_2"/><path stroke-width="0" d="M4075.61 3080.51v-6.697h-4.754v6.697z" id="gge11550_2"/><path stroke-width="0" d="M4082.5 3080.51v-6.697h4.754v6.697z" id="gge11555_2"/><path d="M4101.238 3172.05l3.755 3.762.365-3.145-.974-.976z" stroke-width="0" id="gge12628_2"/><path d="M4163.068 3087.99l-.006-5.905-2.757-.982.008 7.874z" stroke-width="0" id="gge12631_2"/><path d="M4129.735 3136.61h3.445l-1.034-2.067h-1.378z" stroke-width="0" id="gge12637_2"/><path d="M4171.077 3136.61h3.445l-1.033-2.067h-1.378z" stroke-width="0" id="gge12638_2"/><path stroke-width="0" d="M4040.827 3353.146h7.086v7.086h-7.086z" id="gge2232_11"/><ellipse cx="4054.371" cy="3356.689" rx="3.543" ry="3.543" stroke-width="0" id="gge2237_11"/><ellipse cx="4064.371" cy="3356.689" rx="3.543" ry="3.543" stroke-width="0" id="gge2242_11"/><ellipse cx="4074.371" cy="3356.689" rx="3.543" ry="3.543" stroke-width="0" id="gge2247_11"/><path stroke-width="0" d="M4040.827 3321.65h7.086v7.086h-7.086z" id="gge2269_11"/><ellipse cx="4054.371" cy="3325.193" rx="3.543" ry="3.543" stroke-width="0" id="gge2274_11"/><ellipse cx="4064.371" cy="3325.193" rx="3.543" ry="3.543" stroke-width="0" id="gge2279_11"/><ellipse cx="4074.371" cy="3325.193" rx="3.543" ry="3.543" stroke-width="0" id="gge2284_11"/><path stroke-width="0" d="M4106.418 3210.94v-7.873h5.51v7.874z" id="gge6804_11"/><ellipse cx="4109.173" cy="3217.004" rx="3.937" ry="3.937" stroke-width="0" id="gge6809_11"/><ellipse cx="4109.173" cy="3227.004" rx="3.937" ry="3.937" stroke-width="0" id="gge6814_11"/><ellipse cx="4109.173" cy="3237.004" rx="3.937" ry="3.937" stroke-width="0" id="gge6819_11"/><ellipse cx="4109.173" cy="3247.004" rx="3.937" ry="3.937" stroke-width="0" id="gge6824_11"/><ellipse cx="4109.173" cy="3257.004" rx="3.937" ry="3.937" stroke-width="0" id="gge6829_11"/><ellipse cx="4109.173" cy="3267.004" rx="3.937" ry="3.937" stroke-width="0" id="gge6834_11"/><ellipse cx="4109.173" cy="3277.004" rx="3.937" ry="3.937" stroke-width="0" id="gge6839_11"/><ellipse cx="4109.173" cy="3287.004" rx="3.937" ry="3.937" stroke-width="0" id="gge6844_11"/><ellipse cx="4109.173" cy="3297.004" rx="3.937" ry="3.937" stroke-width="0" id="gge6849_11"/><ellipse cx="4109.173" cy="3307.004" rx="3.937" ry="3.937" stroke-width="0" id="gge6854_11"/><ellipse cx="4109.173" cy="3317.004" rx="3.937" ry="3.937" stroke-width="0" id="gge6859_11"/><ellipse cx="4169.173" cy="3207.004" rx="3.937" ry="3.937" stroke-width="0" id="gge6864_11"/><ellipse cx="4169.173" cy="3217.004" rx="3.937" ry="3.937" stroke-width="0" id="gge6869_11"/><ellipse cx="4169.173" cy="3227.004" rx="3.937" ry="3.937" stroke-width="0" id="gge6874_11"/><ellipse cx="4169.173" cy="3237.004" rx="3.937" ry="3.937" stroke-width="0" id="gge6879_11"/><ellipse cx="4169.173" cy="3247.004" rx="3.937" ry="3.937" stroke-width="0" id="gge6884_11"/><ellipse cx="4169.173" cy="3257.004" rx="3.937" ry="3.937" stroke-width="0" id="gge6889_11"/><ellipse cx="4169.173" cy="3277.004" rx="3.937" ry="3.937" stroke-width="0" id="gge6894_11"/><ellipse cx="4169.173" cy="3287.004" rx="3.937" ry="3.937" stroke-width="0" id="gge6899_11"/><ellipse cx="4169.173" cy="3307.004" rx="3.937" ry="3.937" stroke-width="0" id="gge6904_11"/><ellipse cx="4169.173" cy="3317.004" rx="3.937" ry="3.937" stroke-width="0" id="gge6909_11"/><ellipse cx="4169.173" cy="3297.004" rx="3.937" ry="3.937" stroke-width="0" id="gge6914_11"/><ellipse cx="4169.173" cy="3267.004" rx="3.937" ry="3.937" stroke-width="0" id="gge6919_11"/><ellipse cx="4109.173" cy="3327.004" rx="3.937" ry="3.937" stroke-width="0" id="gge6924_11"/><ellipse cx="4109.173" cy="3337.004" rx="3.937" ry="3.937" stroke-width="0" id="gge6929_11"/><ellipse cx="4109.173" cy="3347.004" rx="3.937" ry="3.937" stroke-width="0" id="gge6934_11"/><ellipse cx="4169.173" cy="3327.004" rx="3.937" ry="3.937" stroke-width="0" id="gge6939_11"/><ellipse cx="4169.173" cy="3337.004" rx="3.937" ry="3.937" stroke-width="0" id="gge6944_11"/><ellipse cx="4169.173" cy="3347.004" rx="3.937" ry="3.937" stroke-width="0" id="gge6949_11"/><ellipse cx="4142.795" cy="3175.587" rx="3.543" ry="3.543" stroke-width="0" id="gge7046_11"/><ellipse cx="4152.795" cy="3175.587" rx="3.543" ry="3.543" stroke-width="0" id="gge7051_11"/><ellipse cx="4162.795" cy="3175.587" rx="3.543" ry="3.543" stroke-width="0" id="gge7056_11"/><path stroke-width="0" d="M4169.252 3172.043h7.087v7.087h-7.087z" id="gge7061_11"/><ellipse cx="4142.795" cy="3140.154" rx="3.543" ry="3.543" stroke-width="0" id="gge7094_11"/><ellipse cx="4152.795" cy="3140.154" rx="3.543" ry="3.543" stroke-width="0" id="gge7099_11"/><ellipse cx="4162.795" cy="3140.154" rx="3.543" ry="3.543" stroke-width="0" id="gge7104_11"/><path stroke-width="0" d="M4169.252 3136.61h7.087v7.087h-7.087z" id="gge7109_11"/><ellipse cx="4101.457" cy="3175.587" rx="3.543" ry="3.543" stroke-width="0" id="gge7142_11"/><ellipse cx="4111.457" cy="3175.587" rx="3.543" ry="3.543" stroke-width="0" id="gge7147_11"/><ellipse cx="4121.457" cy="3175.587" rx="3.543" ry="3.543" stroke-width="0" id="gge7152_11"/><path stroke-width="0" d="M4127.913 3172.043H4135v7.087h-7.087z" id="gge7157_11"/><ellipse cx="4101.457" cy="3140.154" rx="3.543" ry="3.543" stroke-width="0" id="gge7190_11"/><ellipse cx="4111.457" cy="3140.154" rx="3.543" ry="3.543" stroke-width="0" id="gge7195_11"/><ellipse cx="4121.457" cy="3140.154" rx="3.543" ry="3.543" stroke-width="0" id="gge7200_11"/><path stroke-width="0" d="M4127.913 3136.61H4135v7.087h-7.087z" id="gge7205_11"/><path stroke-width="0" d="M4138.11 3060.429v7.874h-7.874v-7.874z" id="gge7254_11"/><ellipse cx="4134.173" cy="3074.209" rx="3.937" ry="3.937" stroke-width="0" id="gge7259_11"/><path stroke-width="0" d="M4110.551 3060.429v7.874h-7.874v-7.874z" id="gge7281_11"/><ellipse cx="4106.614" cy="3074.209" rx="3.937" ry="3.937" stroke-width="0" id="gge7286_11"/><path stroke-width="0" d="M4138.11 3095.862v7.874h-7.874v-7.874z" id="gge7308_11"/><ellipse cx="4134.173" cy="3109.642" rx="3.937" ry="3.937" stroke-width="0" id="gge7313_11"/><path stroke-width="0" d="M4110.551 3095.862v7.874h-7.874v-7.874z" id="gge7335_11"/><ellipse cx="4106.614" cy="3109.642" rx="3.937" ry="3.937" stroke-width="0" id="gge7340_11"/><ellipse cx="4165.669" cy="3065.35" rx="3.937" ry="3.937" stroke-width="0" id="gge9957_11"/><ellipse cx="4165.669" cy="3085.035" rx="3.937" ry="3.937" stroke-width="0" id="gge9962_11"/><ellipse cx="4165.669" cy="3104.72" rx="3.937" ry="3.937" stroke-width="0" id="gge9967_11"/><ellipse cx="4043.898" cy="3289.76" rx="3" ry="3" stroke-width="0" id="gge2302_11"/><ellipse cx="4033.898" cy="3289.76" rx="3" ry="3" stroke-width="0" id="gge10_11"/><ellipse cx="4043.898" cy="3258.827" rx="3" ry="3" stroke-width="0" id="gge2322_11"/><ellipse cx="4033.898" cy="3258.827" rx="3" ry="3" stroke-width="0" id="gge2327_11"/><ellipse cx="4043.898" cy="3227.893" rx="3" ry="3" stroke-width="0" id="gge2343_11"/><ellipse cx="4033.898" cy="3227.893" rx="3" ry="3" stroke-width="0" id="gge2348_11"/><ellipse cx="4043.898" cy="3196.959" rx="3" ry="3" stroke-width="0" id="gge2364_11"/><ellipse cx="4033.898" cy="3196.959" rx="3" ry="3" stroke-width="0" id="gge2369_11"/><ellipse cx="4043.898" cy="3166.025" rx="3" ry="3" stroke-width="0" id="gge5285_11"/><ellipse cx="4033.898" cy="3166.025" rx="3" ry="3" stroke-width="0" id="gge5290_11"/><ellipse cx="4043.898" cy="3135.092" rx="3" ry="3" stroke-width="0" id="gge5312_11"/><ellipse cx="4033.898" cy="3135.092" rx="3" ry="3" stroke-width="0" id="gge5317_11"/><ellipse cx="4043.898" cy="3104.158" rx="3" ry="3" stroke-width="0" id="gge5339_11"/><ellipse cx="4033.898" cy="3104.158" rx="3" ry="3" stroke-width="0" id="gge5344_11"/><ellipse cx="4043.898" cy="3073.224" rx="3" ry="3" stroke-width="0" id="gge5366_11"/><ellipse cx="4033.898" cy="3073.224" rx="3" ry="3" stroke-width="0" id="gge5371_11"/></g><g id="bottomSilkLayer" fill="#FFF" stroke="#FFF"><path stroke-width="1" stroke-linecap="round" fill="none" id="gge34_4" d="M4031.691 3285.252v1.282"/><path stroke-width="1" stroke-linecap="round" fill="none" id="gge35_4" d="M4031.691 3292.986v1.67"/><path stroke-width="1" stroke-linecap="round" fill="none" id="gge2311_4" d="M4031.691 3254.32v1.28"/><path stroke-width="1" stroke-linecap="round" fill="none" id="gge2312_4" d="M4031.691 3262.052v1.671"/><path stroke-width="1" stroke-linecap="round" fill="none" id="gge2332_4" d="M4031.691 3223.385v1.282"/><path stroke-width="1" stroke-linecap="round" fill="none" id="gge2333_4" d="M4031.691 3231.119v1.67"/><path stroke-width="1" stroke-linecap="round" fill="none" id="gge2353_4" d="M4031.691 3192.452v1.281"/><path stroke-width="1" stroke-linecap="round" fill="none" id="gge2354_4" d="M4031.691 3200.185v1.671"/><path stroke-width="1" stroke-linecap="round" fill="none" id="gge5274_4" d="M4031.691 3161.518v1.282"/><path stroke-width="1" stroke-linecap="round" fill="none" id="gge5275_4" d="M4031.691 3169.251v1.671"/><path stroke-width="1" stroke-linecap="round" fill="none" id="gge5301_4" d="M4031.691 3130.584v1.282"/><path stroke-width="1" stroke-linecap="round" fill="none" id="gge5302_4" d="M4031.691 3138.317v1.671"/><path stroke-width="1" stroke-linecap="round" fill="none" id="gge5328_4" d="M4031.691 3099.65v1.282"/><path stroke-width="1" stroke-linecap="round" fill="none" id="gge5329_4" d="M4031.691 3107.383v1.671"/><path stroke-width="1" stroke-linecap="round" fill="none" id="gge5355_4" d="M4031.691 3068.717v1.282"/><path stroke-width="1" stroke-linecap="round" fill="none" id="gge5356_4" d="M4031.691 3076.45v1.671"/><path stroke-width=".6" stroke-linecap="round" fill="none" id="gge10905_4" d="M4056.511 3235.382h5.718v4.062"/><path stroke-width=".6" stroke-linecap="round" fill="none" id="gge10906_4" d="M4056.511 3247.4h5.718v-4.062"/><path stroke-width=".6" stroke-linecap="round" fill="none" id="gge10907_4" d="M4056.511 3239.598v3.586"/><path stroke-width=".6" stroke-linecap="round" fill="none" id="gge10975_4" d="M4056.511 3185.888h5.718v4.062"/><path stroke-width=".6" stroke-linecap="round" fill="none" id="gge10976_4" d="M4056.511 3197.906h5.718v-4.062"/><path stroke-width=".6" stroke-linecap="round" fill="none" id="gge10977_4" d="M4056.511 3190.104v3.586"/><path stroke-width=".6" stroke-linecap="round" fill="none" id="gge11045_4" d="M4056.511 3136.395h5.718v4.061"/><path stroke-width=".6" stroke-linecap="round" fill="none" id="gge11046_4" d="M4056.511 3148.412h5.718v-4.061"/><path stroke-width=".6" stroke-linecap="round" fill="none" id="gge11047_4" d="M4056.511 3140.61v3.586"/><path stroke-width=".6" stroke-linecap="round" fill="none" id="gge11115_4" d="M4056.511 3086.9h5.718v4.062"/><path stroke-width=".6" stroke-linecap="round" fill="none" id="gge11116_4" d="M4056.511 3098.918h5.718v-4.061"/><path stroke-width=".6" stroke-linecap="round" fill="none" id="gge11117_4" d="M4056.511 3091.117v3.585"/><path stroke-width=".6" stroke-linecap="round" fill="none" id="gge11202_4" d="M4075.31 3248.601h-5.354v-8.496h5.354"/><path stroke-width=".6" stroke-linecap="round" fill="none" id="gge11203_4" d="M4082.8 3248.601h5.354v-8.496h-5.354"/><path stroke-width=".6" stroke-linecap="round" fill="none" id="gge11228_4" d="M4075.31 3235.74h-5.354v-8.496h5.354"/><path stroke-width=".6" stroke-linecap="round" fill="none" id="gge11229_4" d="M4082.8 3235.74h5.354v-8.496h-5.354"/><path stroke-width=".6" stroke-linecap="round" fill="none" id="gge11306_4" d="M4075.31 3197.158h-5.354v-8.497h5.354"/><path stroke-width=".6" stroke-linecap="round" fill="none" id="gge11307_4" d="M4082.8 3197.158h5.354v-8.497h-5.354"/><path stroke-width=".6" stroke-linecap="round" fill="none" id="gge11332_4" d="M4075.31 3184.297h-5.354v-8.497h5.354"/><path stroke-width=".6" stroke-linecap="round" fill="none" id="gge11333_4" d="M4082.8 3184.297h5.354v-8.497h-5.354"/><path stroke-width=".6" stroke-linecap="round" fill="none" id="gge11410_4" d="M4075.31 3145.714h-5.354v-8.496h5.354"/><path stroke-width=".6" stroke-linecap="round" fill="none" id="gge11411_4" d="M4082.8 3145.714h5.354v-8.496h-5.354"/><path stroke-width=".6" stroke-linecap="round" fill="none" id="gge11436_4" d="M4075.31 3132.853h-5.354v-8.497h5.354"/><path stroke-width=".6" stroke-linecap="round" fill="none" id="gge11437_4" d="M4082.8 3132.853h5.354v-8.497h-5.354"/><path stroke-width=".6" stroke-linecap="round" fill="none" id="gge11514_4" d="M4075.31 3094.27h-5.354v-8.496h5.354"/><path stroke-width=".6" stroke-linecap="round" fill="none" id="gge11515_4" d="M4082.8 3094.27h5.354v-8.496h-5.354"/><path stroke-width=".6" stroke-linecap="round" fill="none" id="gge11540_4" d="M4075.31 3081.41h-5.354v-8.497h5.354"/><path stroke-width=".6" stroke-linecap="round" fill="none" id="gge11541_4" d="M4082.8 3081.41h5.354v-8.497h-5.354"/><path d="M4039.898 3275.22v4.29m0 0h-2.45m-1.35-4.29v4.29m0-4.29h-2.66m2.66 2.04h-1.64m1.64 2.25h-2.66m-1.35-4.29v4.29m0-4.29h-1.44l-.61.2-.41.41-.2.41-.21.62v1.02l.21.61.2.41.41.41.61.2h1.44m-4.22-3.47l-.41-.21-.61-.61v4.29" fill="none" stroke-width=".6" id="gge934_4"/><path d="M4039.898 3244.287v4.29m0 0h-2.45m-1.35-4.29v4.29m0-4.29h-2.66m2.66 2.04h-1.64m1.64 2.25h-2.66m-1.35-4.29v4.29m0-4.29h-1.44l-.61.2-.41.41-.2.41-.21.62v1.02l.21.61.2.41.41.41.61.2h1.44m-4.42-3.27v-.2l-.21-.41-.2-.21-.41-.2h-.82l-.41.2-.2.21-.21.41v.41l.21.41.41.61 2.04 2.04h-2.86" fill="none" stroke-width=".6" id="gge799_4"/><path d="M4039.898 3213.353v4.29m0 0h-2.45m-1.35-4.29v4.29m0-4.29h-2.66m2.66 2.04h-1.64m1.64 2.25h-2.66m-1.35-4.29v4.29m0-4.29h-1.44l-.61.2-.41.41-.2.41-.21.62v1.02l.21.61.2.41.41.41.61.2h1.44m-4.63-4.29h-2.25l1.23 1.64h-.61l-.41.2-.21.2-.2.62v.41l.2.61.41.41.62.2h.61l.61-.2.21-.2.2-.41" fill="none" stroke-width=".6" id="gge907_4"/><path d="M4039.898 3182.42v4.29m0 0h-2.45m-1.35-4.29v4.29m0-4.29h-2.66m2.66 2.04h-1.64m1.64 2.25h-2.66m-1.35-4.29v4.29m0-4.29h-1.44l-.61.2-.41.41-.2.41-.21.62v1.02l.21.61.2.41.41.41.61.2h1.44m-6.26-4.29l2.04 2.86h-3.07m1.03-2.86v4.29" fill="none" stroke-width=".6" id="gge826_4"/><path d="M4039.898 3151.485v4.29m0 0h-2.45m-1.35-4.29v4.29m0-4.29h-2.66m2.66 2.04h-1.64m1.64 2.25h-2.66m-1.35-4.29v4.29m0-4.29h-1.44l-.61.2-.41.41-.2.41-.21.62v1.02l.21.61.2.41.41.41.61.2h1.44m-6.67-4.29h2.04l.21 1.84-.21-.2-.61-.21h-.61l-.62.21-.41.4-.2.62v.41l.2.61.41.41.62.2h.61l.61-.2.21-.2.2-.41" fill="none" stroke-width=".6" id="gge5272_4"/><path d="M4039.898 3120.552v4.29m0 0h-2.45m-1.35-4.29v4.29m0-4.29h-2.66m2.66 2.04h-1.64m1.64 2.25h-2.66m-1.35-4.29v4.29m0-4.29h-1.44l-.61.2-.41.41-.2.41-.21.62v1.02l.21.61.2.41.41.41.61.2h1.44m-6.67-3.68l.2-.41.62-.2h.41l.61.2.41.62.2 1.02v1.02l-.2.82-.41.41-.61.2h-.21l-.61-.2-.41-.41-.21-.61v-.21l.21-.61.41-.41.61-.2h.21l.61.2.41.41.2.61" fill="none" stroke-width=".6" id="gge5299_4"/><path d="M4039.898 3089.617v4.29m0 0h-2.45m-1.35-4.29v4.29m0-4.29h-2.66m2.66 2.04h-1.64m1.64 2.25h-2.66m-1.35-4.29v4.29m0-4.29h-1.44l-.61.2-.41.41-.2.41-.21.62v1.02l.21.61.2.41.41.41.61.2h1.44m-7.08-4.29l2.04 4.29m.82-4.29h-2.86" fill="none" stroke-width=".6" id="gge5326_4"/><path d="M4039.898 3058.684v4.29m0 0h-2.45m-1.35-4.29v4.29m0-4.29h-2.66m2.66 2.04h-1.64m1.64 2.25h-2.66m-1.35-4.29v4.29m0-4.29h-1.44l-.61.2-.41.41-.2.41-.21.62v1.02l.21.61.2.41.41.41.61.2h1.44m-5.24-4.29l.61.2.21.41v.41l-.21.41-.41.21-.81.2-.62.2-.41.41-.2.41v.62l.2.41.21.2.61.2h.82l.61-.2.21-.2.2-.41v-.62l-.2-.41-.41-.41-.61-.2-.82-.2-.41-.21-.21-.41v-.41l.21-.41.61-.2h.82" fill="none" stroke-width=".6" id="gge5353_4"/><path d="M4058.14 3228.85l.41.2.41.41.21.41.2.62v1.02l-.2.61-.21.41-.41.41-.41.2h-.82l-.4-.2-.41-.41-.21-.41-.2-.61v-1.02l.2-.62.21-.41.41-.41.4-.2h.82m-.61 3.48l-1.23 1.22m-1.76-3.68v-.2l-.2-.41-.21-.21-.41-.2h-.81l-.41.2-.21.21-.2.41v.41l.2.41.41.61 2.05 2.04h-2.87" fill="none" stroke-width=".6" id="gge10903_4"/><path d="M4058.14 3179.357l.41.2.41.41.21.41.2.62v1.02l-.2.61-.21.41-.41.41-.41.2h-.82l-.4-.2-.41-.41-.21-.41-.2-.61v-1.02l.2-.62.21-.41.41-.41.4-.2h.82m-.61 3.48l-1.23 1.22m-3.6-4.7l2.05 2.86h-3.07m1.02-2.86v4.29" fill="none" stroke-width=".6" id="gge10973_4"/><path d="M4058.14 3129.863l.41.2.41.41.21.41.2.62v1.02l-.2.61-.21.41-.41.41-.41.2h-.82l-.4-.2-.41-.41-.21-.41-.2-.61v-1.02l.2-.62.21-.41.41-.41.4-.2h.82m-.61 3.48l-1.23 1.22m-4.01-4.09l.21-.41.61-.2h.41l.61.2.41.62.21 1.02v1.02l-.21.82-.41.41-.61.2h-.2l-.62-.2-.41-.41-.2-.61v-.21l.2-.61.41-.41.62-.2h.2l.61.2.41.41.21.61" fill="none" stroke-width=".6" id="gge11043_4"/><path d="M4058.14 3080.37l.41.2.41.41.21.41.2.62v1.02l-.2.61-.21.41-.41.41-.41.2h-.82l-.4-.2-.41-.41-.21-.41-.2-.61v-1.02l.2-.62.21-.41.41-.41.4-.2h.82m-.61 3.48l-1.23 1.22m-2.58-4.7l.62.2.2.41v.41l-.2.41-.41.21-.82.2-.61.2-.41.41-.21.41v.62l.21.41.2.2.62.2h.81l.62-.2.2-.2.21-.41v-.62l-.21-.41-.41-.41-.61-.2-.82-.2-.41-.21-.2-.41v-.41l.2-.41.62-.2h.81" fill="none" stroke-width=".6" id="gge11113_4"/><path d="M4079.055 3233.813v4.29m0-4.29h-1.84l-.61.2-.21.21-.2.41v.41l.2.41.21.2.61.2h1.84m-1.43 0l-1.43 2.25m-1.56-3.27v-.2l-.2-.41-.21-.21-.41-.2h-.81l-.41.2-.21.21-.2.41v.41l.2.41.41.61 2.05 2.04h-2.87m-1.35-3.47l-.41-.21-.61-.61v4.29" fill="none" stroke-width=".6" id="gge11200_4"/><path d="M4079.055 3220.952v4.29m0-4.29h-1.84l-.61.2-.21.21-.2.41v.41l.2.41.21.2.61.2h1.84m-1.43 0l-1.43 2.25m-1.56-3.27v-.2l-.2-.41-.21-.21-.41-.2h-.81l-.41.2-.21.21-.2.41v.41l.2.41.41.61 2.05 2.04h-2.87m-1.55-3.27v-.2l-.21-.41-.2-.21-.41-.2h-.82l-.41.2-.2.21-.21.41v.41l.21.41.41.61 2.04 2.04h-2.86" fill="none" stroke-width=".6" id="gge11226_4"/><path d="M4079.055 3182.37v4.29m0-4.29h-1.84l-.61.2-.21.21-.2.41v.41l.2.41.21.2.61.2h1.84m-1.43 0l-1.43 2.25m-3.4-4.29l2.05 2.86h-3.07m1.02-2.86v4.29m-2.37-3.47l-.41-.21-.61-.61v4.29" fill="none" stroke-width=".6" id="gge11304_4"/><path d="M4079.055 3169.508v4.29m0-4.29h-1.84l-.61.2-.21.21-.2.41v.41l.2.41.21.2.61.2h1.84m-1.43 0l-1.43 2.25m-3.4-4.29l2.05 2.86h-3.07m1.02-2.86v4.29m-2.58-3.27v-.2l-.2-.41-.21-.21-.4-.2h-.82l-.41.2-.21.21-.2.41v.41l.2.41.41.61 2.05 2.04h-2.87" fill="none" stroke-width=".6" id="gge11330_4"/><path d="M4079.055 3130.926v4.29m0-4.29h-1.84l-.61.2-.21.21-.2.41v.41l.2.41.21.2.61.2h1.84m-1.43 0l-1.43 2.25m-3.81-3.68l.21-.41.61-.2h.41l.61.2.41.62.21 1.02v1.02l-.21.82-.41.41-.61.2h-.21l-.61-.2-.41-.41-.2-.61v-.21l.2-.61.41-.41.61-.2h.21l.61.2.41.41.21.61m-4.01-2.04l-.41-.21-.62-.61v4.29" fill="none" stroke-width=".6" id="gge11408_4"/><path d="M4079.055 3118.065v4.29m0-4.29h-1.84l-.61.2-.21.21-.2.41v.41l.2.41.21.2.61.2h1.84m-1.43 0l-1.43 2.25m-3.81-3.68l.21-.41.61-.2h.41l.61.2.41.62.21 1.02v1.02l-.21.82-.41.41-.61.2h-.21l-.61-.2-.41-.41-.2-.61v-.21l.2-.61.41-.41.61-.2h.21l.61.2.41.41.21.61m-4.22-1.84v-.2l-.2-.41-.21-.21-.41-.2h-.81l-.41.2-.21.21-.2.41v.41l.2.41.41.61 2.05 2.04h-2.87" fill="none" stroke-width=".6" id="gge11434_4"/><path d="M4079.055 3079.482v4.29m0-4.29h-1.84l-.61.2-.21.21-.2.41v.41l.2.41.21.2.61.2h1.84m-1.43 0l-1.43 2.25m-2.38-4.29l.62.2.2.41v.41l-.2.41-.41.21-.82.2-.61.2-.41.41-.21.41v.62l.21.41.2.2.62.2h.81l.62-.2.2-.2.21-.41v-.62l-.21-.41-.41-.41-.61-.2-.82-.2-.41-.21-.2-.41v-.41l.2-.41.62-.2h.81m-3.19.82l-.41-.21-.61-.61v4.29" fill="none" stroke-width=".6" id="gge11512_4"/><path d="M4079.055 3066.621v4.29m0-4.29h-1.84l-.61.2-.21.21-.2.41v.41l.2.41.21.2.61.2h1.84m-1.43 0l-1.43 2.25m-2.38-4.29l.62.2.2.41v.41l-.2.41-.41.21-.82.2-.61.2-.41.41-.21.41v.62l.21.41.2.2.62.2h.81l.62-.2.2-.2.21-.41v-.62l-.21-.41-.41-.41-.61-.2-.82-.2-.41-.21-.2-.41v-.41l.2-.41.62-.2h.81m-3.39 1.02v-.2l-.21-.41-.2-.21-.41-.2h-.82l-.41.2-.2.21-.21.41v.41l.21.41.41.61 2.04 2.04h-2.86" fill="none" stroke-width=".6" id="gge11538_4"/><path d="M4031.691 3285.252a8.5 8.5 0 0 1 15.333 2.016" fill="none" stroke-width="1" id="gge29_4"/><path d="M4046.898 3292.26a8.382 8.382 0 0 1-14.933 2.21" fill="none" stroke-width="1" id="gge36_4"/><path d="M4034.162 3286.236a5.903 5.903 0 0 1 9.247-.283" fill="none" stroke-width="1" id="gge2298_4"/><path d="M4043.517 3293.445a5.91 5.91 0 0 1-9.142.118" fill="none" stroke-width="1" id="gge2299_4"/><path d="M4031.691 3254.32a8.5 8.5 0 0 1 15.333 2.014" fill="none" stroke-width="1" id="gge2313_4"/><path d="M4046.898 3261.327a8.382 8.382 0 0 1-14.933 2.21" fill="none" stroke-width="1" id="gge2314_4"/><path d="M4034.162 3255.303a5.903 5.903 0 0 1 9.247-.283" fill="none" stroke-width="1" id="gge2315_4"/><path d="M4043.517 3262.512a5.91 5.91 0 0 1-9.142.118" fill="none" stroke-width="1" id="gge2316_4"/><path d="M4031.691 3223.385a8.5 8.5 0 0 1 15.333 2.016" fill="none" stroke-width="1" id="gge2334_4"/><path d="M4046.898 3230.393a8.382 8.382 0 0 1-14.933 2.21" fill="none" stroke-width="1" id="gge2335_4"/><path d="M4034.162 3224.369a5.903 5.903 0 0 1 9.247-.283" fill="none" stroke-width="1" id="gge2336_4"/><path d="M4043.517 3231.578a5.91 5.91 0 0 1-9.142.118" fill="none" stroke-width="1" id="gge2337_4"/><path d="M4031.691 3192.452a8.5 8.5 0 0 1 15.333 2.015" fill="none" stroke-width="1" id="gge2355_4"/><path d="M4046.898 3199.46a8.382 8.382 0 0 1-14.933 2.21" fill="none" stroke-width="1" id="gge2356_4"/><path d="M4034.162 3193.436a5.903 5.903 0 0 1 9.247-.283" fill="none" stroke-width="1" id="gge2357_4"/><path d="M4043.517 3200.645a5.91 5.91 0 0 1-9.142.118" fill="none" stroke-width="1" id="gge2358_4"/><path d="M4031.691 3161.518a8.5 8.5 0 0 1 15.333 2.015" fill="none" stroke-width="1" id="gge5276_4"/><path d="M4046.898 3168.525a8.382 8.382 0 0 1-14.933 2.21" fill="none" stroke-width="1" id="gge5277_4"/><path d="M4034.162 3162.501a5.903 5.903 0 0 1 9.247-.282" fill="none" stroke-width="1" id="gge5278_4"/><path d="M4043.517 3169.71a5.91 5.91 0 0 1-9.142.119" fill="none" stroke-width="1" id="gge5279_4"/><path d="M4031.691 3130.584a8.5 8.5 0 0 1 15.333 2.015" fill="none" stroke-width="1" id="gge5303_4"/><path d="M4046.898 3137.592a8.382 8.382 0 0 1-14.933 2.21" fill="none" stroke-width="1" id="gge5304_4"/><path d="M4034.162 3131.568a5.903 5.903 0 0 1 9.247-.283" fill="none" stroke-width="1" id="gge5305_4"/><path d="M4043.517 3138.777a5.91 5.91 0 0 1-9.142.118" fill="none" stroke-width="1" id="gge5306_4"/><path d="M4031.691 3099.65a8.5 8.5 0 0 1 15.333 2.015" fill="none" stroke-width="1" id="gge5330_4"/><path d="M4046.898 3106.657a8.382 8.382 0 0 1-14.933 2.211" fill="none" stroke-width="1" id="gge5331_4"/><path d="M4034.162 3100.634a5.903 5.903 0 0 1 9.247-.283" fill="none" stroke-width="1" id="gge5332_4"/><path d="M4043.517 3107.843a5.91 5.91 0 0 1-9.142.118" fill="none" stroke-width="1" id="gge5333_4"/><path d="M4031.691 3068.717a8.5 8.5 0 0 1 15.333 2.015" fill="none" stroke-width="1" id="gge5357_4"/><path d="M4046.898 3075.724a8.382 8.382 0 0 1-14.933 2.211" fill="none" stroke-width="1" id="gge5358_4"/><path d="M4034.162 3069.7a5.903 5.903 0 0 1 9.247-.282" fill="none" stroke-width="1" id="gge5359_4"/><path d="M4043.517 3076.91a5.91 5.91 0 0 1-9.142.118" fill="none" stroke-width="1" id="gge5360_4"/></g></g></g></svg>